<?xml version="1.0" encoding="utf-8"?>
<!-- Generator: Adobe Illustrator 27.8.0, SVG Export Plug-In . SVG Version: 6.00 Build 0)  -->
<svg version="1.1" id="Layer_1" xmlns="http://www.w3.org/2000/svg" xmlns:xlink="http://www.w3.org/1999/xlink" x="0px" y="0px"
	 viewBox="0 0 1059.8 265" style="enable-background:new 0 0 1059.8 265;" xml:space="preserve">
<polygon points="293.6,243.7 36.6,243.7 152.8,42.3 244.8,201.2 109.9,201.2 152.8,126.8 171.4,159 155.9,159 143.8,180 207.9,180 
	152.8,84.8 73.3,222.5 281.4,222.5 152.8,0 0,265 305.9,265 "/>
<g>
	<path d="M385.5,103c6.5-4.2,13.9-6.2,22.2-6.2c4.6,0,8.9,0.6,13,1.9s7.8,3.1,11.1,5.6c3.3,2.5,6.1,5.5,8.4,9s3.9,7.7,4.7,12.3h21.9
		c-1.2-7.7-3.6-14.6-7-20.6c-3.5-6-7.8-11.1-13.1-15.3c-5.3-4.2-11.2-7.4-17.8-9.5c-6.6-2.2-13.7-3.3-21.3-3.3
		c-12.4,0-23.4,3-33.2,8.9c-9.7,5.9-17.4,14.4-23,25.4s-8.4,24.2-8.4,39.5s2.8,28.4,8.4,39.5c5.6,11,13.2,19.5,23,25.4
		c9.7,5.9,20.8,8.9,33.2,8.9c7.9,0,15.2-1.2,21.9-3.5c6.7-2.3,12.6-5.6,17.8-9.9c5.2-4.3,9.5-9.4,12.8-15.3
		c3.3-5.9,5.6-12.4,6.8-19.4l-21.9-0.1c-0.9,4.6-2.5,8.6-4.8,12.2c-2.3,3.5-5.1,6.5-8.4,8.9s-7,4.3-11.1,5.5s-8.4,1.9-12.9,1.9
		c-8.2,0-15.5-2.1-22.1-6.2c-6.5-4.1-11.7-10.2-15.5-18.2s-5.6-17.9-5.6-29.6c0-11.6,1.9-21.4,5.6-29.4
		C373.8,113.2,379,107.2,385.5,103z"/>
	<path d="M610.3,113.2c-6.3,0-11.9,1.7-16.9,5s-8.4,7.9-10.4,13.7h-1.1v-17.1h-20.3v107.6h21v-65.7c0-4.7,1.1-8.8,3.4-12.5
		c2.2-3.7,5.3-6.5,9.1-8.6c3.9-2.1,8.3-3.1,13.2-3.1c2.1,0,4.3,0.2,6.4,0.5c2.1,0.3,3.6,0.6,4.5,0.8v-20c-1-0.1-2.4-0.3-4.2-0.3
		C613.2,113.3,611.6,113.2,610.3,113.2z"/>
	<rect x="636.5" y="77.8" width="21" height="144.7"/>
	<polygon points="812.6,141.3 741.1,141.3 741.1,77.8 719.4,77.8 719.4,222.5 741.1,222.5 741.1,159.9 812.6,159.9 812.6,222.5 
		834.4,222.5 834.4,77.8 812.6,77.8 	"/>
	<path d="M921.2,177.8c0,6.1-1.2,11.2-3.8,15.1c-2.6,4-5.8,6.9-9.7,8.9s-7.8,2.9-11.7,2.9c-6.5,0-11.8-2.2-15.8-6.5
		c-4.1-4.3-6.1-10.2-6.1-17.5v-65.9h-21v68.5c0,8.9,1.5,16.3,4.5,22.4c3,6,7.2,10.6,12.5,13.6c5.3,3.1,11.4,4.6,18.3,4.6
		c8.1,0,14.8-1.9,20.3-5.7c5.4-3.8,9.4-8.6,11.9-14.3h1.1v18.6h20.6V114.8h-21L921.2,177.8L921.2,177.8z"/>
	<path d="M1054,139c-3.9-8.3-9.3-14.6-16.1-19s-14.6-6.6-23.3-6.6c-6.7,0-12.1,1.1-16.1,3.3c-4.1,2.2-7.2,4.8-9.5,7.7
		c-2.3,2.9-4,5.5-5.3,7.8h-1.3V77.8h-21v144.7H982v-16.7h1.8c1.3,2.3,3.1,4.9,5.4,7.8s5.6,5.5,9.7,7.7c4.1,2.2,9.5,3.3,16,3.3
		c8.7,0,16.4-2.2,23.2-6.7s12.1-10.8,16-19.1s5.8-18.3,5.8-29.9C1059.8,157.2,1057.9,147.3,1054,139z M1035.4,188.1
		c-2.2,5.7-5.4,10.3-9.6,13.6c-4.2,3.3-9.4,5-15.7,5c-6,0-11.1-1.6-15.3-4.8s-7.3-7.6-9.5-13.4c-2.2-5.7-3.3-12.3-3.3-19.9
		c0-7.5,1.1-14,3.2-19.6c2.1-5.6,5.3-10,9.5-13.1s9.3-4.7,15.4-4.7c6.3,0,11.6,1.6,15.8,4.9c4.2,3.3,7.4,7.7,9.5,13.4
		s3.2,12,3.2,19.1C1038.7,175.9,1037.6,182.3,1035.4,188.1z"/>
	<path d="M537.5,204.9c-1.3,0.2-2.7,0.3-4.4,0.3c-2.3,0-4.4-0.4-6.3-1.1c-1.9-0.7-3.5-2.1-4.7-4.1s-1.8-5.1-1.8-9.1v-59.2h22.1
		v-16.8h-22.1V87.7l-21,10.5v16.6h-15.8v16.8h15.8v63.6c0,6.5,1.5,11.9,4.4,16.2s6.8,7.5,11.6,9.5c4.8,2.1,9.9,3,15.4,2.9
		c3.4,0,6.2-0.3,8.4-0.8s4-1,5.2-1.4l-3.8-17.3C539.7,204.5,538.7,204.7,537.5,204.9z"/>
</g>
</svg>
