<svg width="561" height="585" viewBox="0 0 561 585" fill="none" xmlns="http://www.w3.org/2000/svg">
<g clip-path="url(#clip0_1010_6305)">
<rect width="561" height="585" fill="white"/>
<path d="M525.76 583H1.76001L20.76 212H102.76L178.374 265H544.76L525.76 583Z" fill="#E5E5E5"/>
<path d="M417.489 469.863L114.624 345.135C113.565 344.697 112.723 343.858 112.283 342.8C111.842 341.743 111.839 340.553 112.274 339.494L249.508 6.26227C249.945 5.20345 250.785 4.3614 251.842 3.92082C252.9 3.48025 254.089 3.47714 255.149 3.91219L558.014 128.64C559.073 129.078 559.915 129.917 560.355 130.975C560.796 132.032 560.799 133.222 560.364 134.281L423.13 467.513C422.693 468.572 421.853 469.414 420.796 469.854C419.738 470.295 418.549 470.298 417.489 469.863Z" fill="white"/>
<path d="M417.489 469.863L114.624 345.135C113.565 344.697 112.723 343.858 112.283 342.8C111.842 341.743 111.839 340.553 112.274 339.494L249.508 6.26227C249.945 5.20345 250.785 4.3614 251.842 3.92082C252.9 3.48025 254.089 3.47714 255.149 3.91219L558.014 128.64C559.073 129.078 559.915 129.917 560.355 130.975C560.796 132.032 560.799 133.222 560.364 134.281L423.13 467.513C422.693 468.572 421.853 469.414 420.796 469.854C419.738 470.295 418.549 470.298 417.489 469.863Z" fill="white"/>
<path d="M417.489 469.863L114.624 345.135C113.565 344.697 112.723 343.858 112.283 342.8C111.842 341.743 111.839 340.553 112.274 339.494L249.508 6.26227C249.945 5.20345 250.785 4.3614 251.842 3.92082C252.9 3.48025 254.089 3.47714 255.149 3.91219L558.014 128.64C559.073 129.078 559.915 129.917 560.355 130.975C560.796 132.032 560.799 133.222 560.364 134.281L423.13 467.513C422.693 468.572 421.853 469.414 420.796 469.854C419.738 470.295 418.549 470.298 417.489 469.863ZM254.491 5.51042C253.855 5.24936 253.141 5.2512 252.507 5.51555C251.872 5.7799 251.369 6.28515 251.106 6.92047L113.872 340.152C113.611 340.788 113.613 341.501 113.877 342.136C114.142 342.77 114.647 343.274 115.282 343.536L418.147 468.265C418.783 468.526 419.497 468.524 420.131 468.259C420.766 467.995 421.269 467.49 421.532 466.855L558.766 133.623C559.027 132.987 559.025 132.274 558.761 131.639C558.496 131.005 557.991 130.501 557.356 130.239L254.491 5.51042Z" fill="#3F3D56"/>
<path d="M407.489 469.863L104.624 345.135C103.565 344.697 102.723 343.858 102.283 342.8C101.842 341.743 101.839 340.553 102.274 339.494L239.508 6.26227C239.945 5.20345 240.785 4.3614 241.842 3.92082C242.9 3.48025 244.089 3.47714 245.149 3.91219L548.014 128.64C549.073 129.078 549.915 129.917 550.355 130.975C550.796 132.032 550.799 133.222 550.364 134.281L413.13 467.513C412.693 468.572 411.853 469.414 410.796 469.854C409.738 470.295 408.549 470.298 407.489 469.863Z" fill="white"/>
<path d="M407.489 469.863L104.624 345.135C103.565 344.697 102.723 343.858 102.283 342.8C101.842 341.743 101.839 340.553 102.274 339.494L239.508 6.26227C239.945 5.20345 240.785 4.3614 241.842 3.92082C242.9 3.48025 244.089 3.47714 245.149 3.91219L548.014 128.64C549.073 129.078 549.915 129.917 550.355 130.975C550.796 132.032 550.799 133.222 550.364 134.281L413.13 467.513C412.693 468.572 411.853 469.414 410.796 469.854C409.738 470.295 408.549 470.298 407.489 469.863ZM244.491 5.51042C243.855 5.24936 243.141 5.2512 242.507 5.51555C241.872 5.7799 241.369 6.28515 241.106 6.92047L103.872 340.152C103.611 340.788 103.613 341.501 103.877 342.136C104.142 342.77 104.647 343.274 105.282 343.536L408.147 468.265C408.783 468.526 409.497 468.524 410.131 468.259C410.766 467.995 411.269 467.49 411.532 466.855L548.766 133.623C549.027 132.987 549.025 132.274 548.761 131.639C548.496 131.005 547.991 130.501 547.356 130.239L244.491 5.51042Z" fill="#3F3D56"/>
<path d="M397.489 469.863L94.6241 345.135C93.5653 344.697 92.7232 343.858 92.2826 342.8C91.8421 341.743 91.839 340.553 92.274 339.494L229.508 6.26227C229.945 5.20345 230.785 4.3614 231.842 3.92082C232.9 3.48025 234.089 3.47714 235.149 3.91219L538.014 128.64C539.073 129.078 539.915 129.917 540.355 130.975C540.796 132.032 540.799 133.222 540.364 134.281L403.13 467.513C402.693 468.572 401.853 469.414 400.796 469.854C399.738 470.295 398.549 470.298 397.489 469.863Z" fill="white"/>
<path d="M397.489 469.863L94.6241 345.135C93.5653 344.697 92.7232 343.858 92.2826 342.8C91.8421 341.743 91.839 340.553 92.274 339.494L229.508 6.26227C229.945 5.20345 230.785 4.3614 231.842 3.92082C232.9 3.48025 234.089 3.47714 235.149 3.91219L538.014 128.64C539.073 129.078 539.915 129.917 540.355 130.975C540.796 132.032 540.799 133.222 540.364 134.281L403.13 467.513C402.693 468.572 401.853 469.414 400.796 469.854C399.738 470.295 398.549 470.298 397.489 469.863ZM234.491 5.51042C233.855 5.24936 233.141 5.2512 232.507 5.51555C231.872 5.7799 231.369 6.28515 231.106 6.92047L93.8722 340.152C93.6112 340.788 93.613 341.501 93.8774 342.136C94.1417 342.77 94.647 343.274 95.2823 343.536L398.147 468.265C398.783 468.526 399.497 468.524 400.131 468.259C400.766 467.995 401.269 467.49 401.532 466.855L538.766 133.623C539.027 132.987 539.025 132.274 538.761 131.639C538.496 131.005 537.991 130.501 537.356 130.239L234.491 5.51042Z" fill="#3F3D56"/>
<path d="M417.133 261.737L204.183 174.731C203.755 174.556 203.366 174.299 203.038 173.975C202.71 173.651 202.449 173.266 202.271 172.842C202.093 172.418 202.001 171.964 202 171.504C201.999 171.045 202.089 170.59 202.266 170.165C202.442 169.741 202.701 169.355 203.027 169.029C203.354 168.704 203.742 168.446 204.169 168.269C204.597 168.092 205.055 168.001 205.518 168C205.981 167.999 206.439 168.089 206.867 168.263L419.817 255.269C420.682 255.622 421.369 256.302 421.729 257.158C422.088 258.014 422.09 258.977 421.734 259.835C421.378 260.692 420.694 261.374 419.831 261.731C418.968 262.088 417.997 262.09 417.133 261.737Z" fill="#CCCCCC"/>
<path d="M372.416 273.156L194.213 199.767C193.741 199.573 193.311 199.287 192.95 198.927C192.588 198.567 192.3 198.138 192.104 197.667C191.908 197.196 191.806 196.69 191.805 196.179C191.804 195.669 191.903 195.163 192.098 194.691C192.292 194.218 192.578 193.789 192.938 193.427C193.299 193.065 193.727 192.778 194.198 192.582C194.67 192.385 195.175 192.284 195.686 192.282C196.197 192.281 196.703 192.381 197.175 192.575L375.378 265.964C376.331 266.357 377.09 267.113 377.487 268.065C377.883 269.017 377.886 270.088 377.493 271.041C377.1 271.995 376.344 272.754 375.392 273.15C374.44 273.547 373.37 273.549 372.416 273.156Z" fill="#CCCCCC"/>
<path d="M439.945 194.417L361.986 162.311C361.032 161.918 360.274 161.163 359.877 160.211C359.481 159.259 359.478 158.188 359.871 157.234C360.264 156.281 361.019 155.522 361.972 155.125C362.924 154.729 363.994 154.726 364.948 155.119L442.907 187.225C443.861 187.618 444.619 188.373 445.016 189.325C445.413 190.277 445.415 191.348 445.022 192.302C444.629 193.255 443.874 194.014 442.922 194.411C441.969 194.807 440.899 194.81 439.945 194.417Z" fill="#CCCCCC"/>
<path d="M418.951 321.295L184.011 224.54C183.539 224.345 183.11 224.06 182.748 223.7C182.386 223.339 182.099 222.911 181.902 222.44C181.706 221.968 181.604 221.463 181.603 220.952C181.602 220.441 181.702 219.935 181.896 219.463C182.091 218.991 182.376 218.561 182.736 218.2C183.097 217.838 183.525 217.55 183.996 217.354C184.468 217.158 184.973 217.056 185.484 217.055C185.995 217.054 186.501 217.153 186.973 217.348L421.913 314.103C422.867 314.496 423.625 315.251 424.022 316.203C424.419 317.155 424.421 318.226 424.028 319.18C423.635 320.133 422.88 320.892 421.928 321.289C420.976 321.685 419.905 321.688 418.951 321.295Z" fill="#CCCCCC"/>
<path d="M352.012 322.702L173.809 249.313C173.337 249.118 172.907 248.833 172.546 248.472C172.184 248.112 171.896 247.684 171.7 247.212C171.504 246.741 171.402 246.235 171.401 245.725C171.4 245.214 171.499 244.708 171.694 244.236C171.888 243.763 172.174 243.334 172.534 242.972C172.895 242.61 173.323 242.323 173.794 242.127C174.266 241.93 174.771 241.829 175.282 241.828C175.793 241.827 176.299 241.926 176.771 242.121L354.974 315.509C355.446 315.704 355.875 315.99 356.237 316.35C356.599 316.71 356.886 317.138 357.083 317.61C357.279 318.081 357.381 318.587 357.382 319.098C357.383 319.608 357.283 320.114 357.089 320.586C356.894 321.059 356.609 321.488 356.248 321.85C355.888 322.212 355.46 322.499 354.988 322.695C354.517 322.892 354.011 322.993 353.501 322.995C352.99 322.996 352.484 322.896 352.012 322.702Z" fill="#CCCCCC"/>
<path d="M398.547 370.84L163.607 274.085C162.653 273.692 161.894 272.937 161.498 271.985C161.101 271.033 161.099 269.962 161.492 269.008C161.885 268.054 162.64 267.296 163.592 266.899C164.544 266.503 165.615 266.5 166.569 266.893L401.509 363.648C402.462 364.041 403.221 364.796 403.618 365.748C404.014 366.7 404.017 367.771 403.624 368.725C403.231 369.679 402.475 370.437 401.523 370.834C400.571 371.23 399.501 371.233 398.547 370.84Z" fill="#CCCCCC"/>
<path d="M388.345 395.613L153.405 298.858C152.451 298.465 151.693 297.709 151.296 296.757C150.899 295.805 150.897 294.735 151.29 293.781C151.683 292.827 152.438 292.069 153.39 291.672C154.342 291.275 155.413 291.273 156.367 291.666L391.307 388.421C391.779 388.615 392.208 388.901 392.57 389.261C392.932 389.622 393.219 390.05 393.416 390.521C393.612 390.993 393.714 391.498 393.715 392.009C393.716 392.519 393.616 393.025 393.422 393.498C393.227 393.97 392.942 394.399 392.581 394.761C392.221 395.123 391.793 395.41 391.321 395.607C390.85 395.803 390.345 395.905 389.834 395.906C389.323 395.907 388.817 395.807 388.345 395.613Z" fill="#CCCCCC"/>
<path d="M273.73 393.772C278.432 394.021 283.146 393.877 287.824 393.342C292.037 392.85 296.425 392.172 300.118 389.957C301.715 389.046 303.074 387.771 304.086 386.236C305.097 384.701 305.732 382.949 305.939 381.122C306.102 379.384 305.708 377.64 304.813 376.141C303.919 374.642 302.57 373.467 300.964 372.785C299.333 372.099 297.548 371.866 295.796 372.111C294.044 372.357 292.391 373.071 291.012 374.179C289.539 375.459 288.374 377.054 287.604 378.846C286.833 380.639 286.477 382.582 286.563 384.531C286.757 392.536 293.09 400.441 300.122 403.77C308.043 407.52 318.86 404.333 320.888 395.098C321.31 393.177 318.694 392.51 317.6 393.744C316.107 395.39 315.299 397.544 315.34 399.767C315.382 401.989 316.271 404.111 317.824 405.7C319.378 407.289 321.48 408.225 323.701 408.317C325.921 408.408 328.093 407.648 329.773 406.192L326.828 404.98C327.684 408.565 329.469 411.862 332.003 414.539C334.537 417.216 337.732 419.178 341.266 420.228C343.009 420.751 344.817 421.026 346.637 421.047C348.849 421.053 351.122 422.163 353.237 422.853L368.481 427.819C370.724 428.549 372.146 425.146 369.886 424.409L356.08 419.911C353.779 419.162 351.484 418.392 349.176 417.662C347.527 417.141 345.721 417.423 344 417.116C340.78 416.507 337.799 414.995 335.406 412.756C333.012 410.517 331.304 407.644 330.481 404.471C330.431 404.156 330.301 403.858 330.102 403.608C329.904 403.357 329.645 403.161 329.349 403.039C329.054 402.918 328.732 402.874 328.414 402.912C328.097 402.951 327.795 403.07 327.537 403.259C326.573 404.177 325.284 404.676 323.953 404.649C322.622 404.622 321.356 404.07 320.43 403.113C319.504 402.156 318.993 400.873 319.009 399.541C319.025 398.21 319.566 396.939 320.515 396.005L317.227 394.65C315.918 400.608 308.651 402.844 303.414 401.121C297.556 399.195 292.522 393.588 290.775 387.716C290.307 386.305 290.136 384.813 290.271 383.333C290.407 381.853 290.846 380.417 291.561 379.114C292.199 377.926 293.193 376.967 294.404 376.374C295.615 375.781 296.982 375.583 298.312 375.807C299.499 375.975 300.575 376.598 301.312 377.544C302.049 378.49 302.39 379.685 302.262 380.878C302.067 382.219 301.545 383.492 300.742 384.585C299.939 385.677 298.879 386.555 297.657 387.142C294.361 388.911 290.413 389.352 286.751 389.753C282.576 390.207 278.372 390.327 274.178 390.111C271.824 389.992 271.351 393.653 273.73 393.772Z" fill="#2B66FF"/>
<path d="M247.76 528H33.7598V545H247.76V528Z" fill="#2B66FF"/>
<path d="M140.76 495H33.7598V512H140.76V495Z" fill="#2B66FF"/>
<path d="M435.072 272.072C437.873 273.689 441.455 272.729 443.072 269.928C444.689 267.127 443.729 263.545 440.928 261.928C438.127 260.311 434.545 261.271 432.928 264.072C431.311 266.873 432.271 270.455 435.072 272.072Z" fill="#2B66FF"/>
<path d="M436.38 268.645C436.266 268.579 436.176 268.478 436.125 268.357L436.121 268.349L435.456 266.748C435.425 266.674 435.409 266.595 435.409 266.514C435.409 266.434 435.424 266.354 435.455 266.28C435.486 266.205 435.531 266.138 435.588 266.081C435.644 266.024 435.712 265.979 435.786 265.948C435.86 265.917 435.94 265.901 436.02 265.901C436.101 265.901 436.18 265.917 436.255 265.948C436.329 265.979 436.397 266.024 436.453 266.081C436.51 266.138 436.555 266.205 436.586 266.28L437.016 267.317L440.214 265.991C440.288 265.961 440.368 265.945 440.448 265.945C440.528 265.945 440.608 265.961 440.682 265.991C440.756 266.022 440.824 266.067 440.881 266.124C440.937 266.18 440.982 266.248 441.013 266.322C441.075 266.472 441.075 266.641 441.013 266.79C440.951 266.94 440.832 267.059 440.683 267.121L436.921 268.681C436.834 268.717 436.74 268.732 436.646 268.726C436.553 268.72 436.462 268.692 436.38 268.645Z" fill="white"/>
<path d="M424.072 295.072C426.873 296.689 430.455 295.729 432.072 292.928C433.689 290.127 432.729 286.545 429.928 284.928C427.127 283.311 423.545 284.271 421.928 287.072C420.311 289.873 421.271 293.455 424.072 295.072Z" fill="#2B66FF"/>
<path d="M425.38 291.645C425.266 291.579 425.176 291.478 425.125 291.357L425.121 291.349L424.456 289.748C424.425 289.674 424.409 289.595 424.409 289.514C424.409 289.434 424.424 289.354 424.455 289.28C424.486 289.205 424.531 289.138 424.588 289.081C424.644 289.024 424.712 288.979 424.786 288.948C424.86 288.917 424.94 288.901 425.02 288.901C425.101 288.901 425.18 288.917 425.255 288.948C425.329 288.979 425.397 289.024 425.453 289.081C425.51 289.138 425.555 289.205 425.586 289.28L426.016 290.317L429.214 288.991C429.288 288.961 429.368 288.945 429.448 288.945C429.528 288.945 429.608 288.961 429.682 288.991C429.756 289.022 429.824 289.067 429.881 289.124C429.937 289.18 429.982 289.248 430.013 289.322C430.075 289.472 430.075 289.641 430.013 289.79C429.951 289.94 429.832 290.059 429.683 290.121L425.921 291.681C425.834 291.717 425.74 291.732 425.646 291.726C425.553 291.72 425.462 291.692 425.38 291.645Z" fill="white"/>
<path d="M525.76 290V583H1.76001V237H83.76L159.37 290H525.76Z" fill="white"/>
<path d="M526.76 584H0.759766V236H84.0753L159.689 289H526.76V584ZM2.75977 582H524.76V291H159.058L83.4442 238H2.75977V582Z" fill="#3F3D56"/>
<path d="M56.6193 518.551C56.392 516.259 55.4167 514.479 53.6932 513.21C51.9697 511.941 49.6307 511.307 46.6761 511.307C44.6686 511.307 42.9735 511.591 41.5909 512.159C40.2083 512.708 39.1477 513.475 38.4091 514.46C37.6894 515.445 37.3295 516.562 37.3295 517.812C37.2917 518.854 37.5095 519.763 37.983 520.54C38.4754 521.316 39.1477 521.989 40 522.557C40.8523 523.106 41.8371 523.589 42.9545 524.006C44.072 524.403 45.2652 524.744 46.5341 525.028L51.7614 526.278C54.2992 526.847 56.6288 527.604 58.75 528.551C60.8712 529.498 62.7083 530.663 64.2614 532.045C65.8144 533.428 67.017 535.057 67.8693 536.932C68.7405 538.807 69.1856 540.956 69.2045 543.381C69.1856 546.941 68.2765 550.028 66.4773 552.642C64.697 555.237 62.1212 557.254 58.75 558.693C55.3977 560.114 51.3542 560.824 46.6193 560.824C41.9223 560.824 37.8314 560.104 34.3466 558.665C30.8807 557.225 28.1723 555.095 26.2216 552.273C24.2898 549.432 23.2765 545.919 23.1818 541.733H35.0852C35.2178 543.684 35.7765 545.312 36.7614 546.619C37.7652 547.907 39.1004 548.883 40.767 549.545C42.4527 550.189 44.3561 550.511 46.4773 550.511C48.5606 550.511 50.3693 550.208 51.9034 549.602C53.4564 548.996 54.6591 548.153 55.5114 547.074C56.3636 545.994 56.7898 544.754 56.7898 543.352C56.7898 542.045 56.4015 540.947 55.625 540.057C54.8674 539.167 53.75 538.409 52.2727 537.784C50.8144 537.159 49.0246 536.591 46.9034 536.08L40.5682 534.489C35.6629 533.295 31.7898 531.43 28.9489 528.892C26.108 526.354 24.697 522.936 24.7159 518.636C24.697 515.114 25.6345 512.036 27.5284 509.403C29.4413 506.771 32.0644 504.716 35.3977 503.239C38.7311 501.761 42.5189 501.023 46.7614 501.023C51.0795 501.023 54.8485 501.761 58.0682 503.239C61.3068 504.716 63.8258 506.771 65.625 509.403C67.4242 512.036 68.3523 515.085 68.4091 518.551H56.6193ZM96.9673 560.852C92.4976 560.852 88.6529 559.905 85.4332 558.011C82.2325 556.098 79.7704 553.447 78.0469 550.057C76.3423 546.667 75.4901 542.765 75.4901 538.352C75.4901 533.883 76.3518 529.962 78.0753 526.591C79.8177 523.201 82.2893 520.559 85.4901 518.665C88.6908 516.752 92.4976 515.795 96.9105 515.795C100.717 515.795 104.051 516.487 106.911 517.869C109.77 519.252 112.034 521.193 113.7 523.693C115.367 526.193 116.286 529.129 116.456 532.5H105.036C104.714 530.322 103.861 528.57 102.479 527.244C101.115 525.9 99.3253 525.227 97.1094 525.227C95.2344 525.227 93.5961 525.739 92.1946 526.761C90.812 527.765 89.7325 529.233 88.956 531.165C88.1795 533.097 87.7912 535.436 87.7912 538.182C87.7912 540.966 88.17 543.333 88.9276 545.284C89.7041 547.235 90.7931 548.722 92.1946 549.744C93.5961 550.767 95.2344 551.278 97.1094 551.278C98.492 551.278 99.7325 550.994 100.831 550.426C101.948 549.858 102.867 549.034 103.587 547.955C104.325 546.856 104.808 545.54 105.036 544.006H116.456C116.267 547.339 115.357 550.275 113.729 552.812C112.119 555.331 109.893 557.301 107.053 558.722C104.212 560.142 100.85 560.852 96.9673 560.852ZM136.307 534.773V560H124.205V501.818H135.966V524.062H136.477C137.462 521.487 139.053 519.47 141.25 518.011C143.447 516.534 146.203 515.795 149.517 515.795C152.547 515.795 155.189 516.458 157.443 517.784C159.716 519.091 161.477 520.975 162.727 523.438C163.996 525.881 164.621 528.807 164.602 532.216V560H152.5V534.375C152.519 531.686 151.837 529.593 150.455 528.097C149.091 526.6 147.178 525.852 144.716 525.852C143.068 525.852 141.61 526.203 140.341 526.903C139.091 527.604 138.106 528.627 137.386 529.972C136.686 531.297 136.326 532.898 136.307 534.773ZM194.013 560.852C189.524 560.852 185.661 559.943 182.422 558.125C179.202 556.288 176.721 553.693 174.979 550.341C173.236 546.97 172.365 542.983 172.365 538.381C172.365 533.892 173.236 529.953 174.979 526.562C176.721 523.172 179.174 520.53 182.337 518.636C185.518 516.742 189.25 515.795 193.53 515.795C196.409 515.795 199.089 516.259 201.57 517.188C204.07 518.097 206.248 519.47 208.104 521.307C209.979 523.144 211.437 525.455 212.479 528.239C213.52 531.004 214.041 534.242 214.041 537.955V541.278H177.195V533.778H202.649C202.649 532.036 202.27 530.492 201.513 529.148C200.755 527.803 199.704 526.752 198.359 525.994C197.034 525.218 195.49 524.83 193.729 524.83C191.892 524.83 190.263 525.256 188.842 526.108C187.441 526.941 186.342 528.068 185.547 529.489C184.751 530.89 184.344 532.453 184.325 534.176V541.307C184.325 543.466 184.723 545.331 185.518 546.903C186.333 548.475 187.479 549.688 188.956 550.54C190.433 551.392 192.185 551.818 194.212 551.818C195.556 551.818 196.787 551.629 197.905 551.25C199.022 550.871 199.979 550.303 200.774 549.545C201.57 548.788 202.176 547.86 202.592 546.761L213.786 547.5C213.217 550.189 212.053 552.538 210.291 554.545C208.549 556.534 206.295 558.087 203.53 559.205C200.784 560.303 197.611 560.852 194.013 560.852ZM221.939 560V516.364H233.473V524.062H233.984C234.893 521.506 236.409 519.489 238.53 518.011C240.651 516.534 243.189 515.795 246.143 515.795C249.136 515.795 251.683 516.544 253.786 518.04C255.888 519.517 257.289 521.525 257.99 524.062H258.445C259.335 521.562 260.945 519.564 263.274 518.068C265.623 516.553 268.397 515.795 271.598 515.795C275.67 515.795 278.975 517.093 281.513 519.688C284.07 522.263 285.348 525.919 285.348 530.653V560H273.274V533.04C273.274 530.616 272.63 528.797 271.342 527.585C270.054 526.373 268.445 525.767 266.513 525.767C264.316 525.767 262.602 526.468 261.371 527.869C260.14 529.252 259.524 531.08 259.524 533.352V560H247.791V532.784C247.791 530.644 247.176 528.939 245.945 527.67C244.732 526.402 243.132 525.767 241.143 525.767C239.799 525.767 238.587 526.108 237.507 526.79C236.446 527.453 235.604 528.39 234.979 529.602C234.354 530.795 234.041 532.197 234.041 533.807V560H221.939ZM314.794 560.852C310.305 560.852 306.442 559.943 303.203 558.125C299.983 556.288 297.502 553.693 295.76 550.341C294.018 546.97 293.146 542.983 293.146 538.381C293.146 533.892 294.018 529.953 295.76 526.562C297.502 523.172 299.955 520.53 303.118 518.636C306.3 516.742 310.031 515.795 314.311 515.795C317.19 515.795 319.87 516.259 322.351 517.188C324.851 518.097 327.029 519.47 328.885 521.307C330.76 523.144 332.218 525.455 333.26 528.239C334.302 531.004 334.822 534.242 334.822 537.955V541.278H297.976V533.778H323.43C323.43 532.036 323.052 530.492 322.294 529.148C321.536 527.803 320.485 526.752 319.141 525.994C317.815 525.218 316.271 524.83 314.51 524.83C312.673 524.83 311.044 525.256 309.624 526.108C308.222 526.941 307.124 528.068 306.328 529.489C305.533 530.89 305.125 532.453 305.107 534.176V541.307C305.107 543.466 305.504 545.331 306.3 546.903C307.114 548.475 308.26 549.688 309.737 550.54C311.214 551.392 312.966 551.818 314.993 551.818C316.338 551.818 317.569 551.629 318.686 551.25C319.804 550.871 320.76 550.303 321.555 549.545C322.351 548.788 322.957 547.86 323.374 546.761L334.567 547.5C333.999 550.189 332.834 552.538 331.072 554.545C329.33 556.534 327.076 558.087 324.311 559.205C321.565 560.303 318.393 560.852 314.794 560.852Z" fill="#3F3D56"/>
<path d="M373.666 136.342L375.491 121.323L378.585 122.63L376.871 132.877L376.983 132.924L383.361 124.647L386.011 125.766L384.512 136.127L384.629 136.177L390.788 127.783L393.882 129.09L384.389 140.871L381.628 139.705L382.776 129.866L382.672 129.822L376.427 137.508L373.666 136.342ZM393.066 144.766C392.049 144.337 391.262 143.75 390.703 143.005C390.15 142.257 389.836 141.411 389.763 140.465C389.691 139.515 389.873 138.525 390.308 137.495C390.746 136.457 391.33 135.635 392.059 135.028C392.79 134.417 393.615 134.051 394.535 133.93C395.461 133.807 396.432 133.96 397.448 134.389C398.464 134.818 399.249 135.407 399.802 136.154C400.361 136.899 400.676 137.747 400.748 138.697C400.821 139.643 400.639 140.635 400.2 141.673C399.766 142.703 399.183 143.523 398.452 144.134C397.723 144.741 396.895 145.106 395.969 145.229C395.05 145.35 394.082 145.195 393.066 144.766ZM393.991 142.613C394.453 142.808 394.894 142.84 395.314 142.709C395.737 142.574 396.123 142.31 396.473 141.919C396.828 141.529 397.129 141.042 397.376 140.457C397.622 139.873 397.762 139.317 397.794 138.791C397.83 138.267 397.75 137.806 397.553 137.409C397.355 137.013 397.025 136.716 396.563 136.521C396.096 136.324 395.648 136.291 395.217 136.423C394.79 136.556 394.4 136.818 394.045 137.208C393.694 137.6 393.396 138.088 393.149 138.672C392.902 139.257 392.761 139.811 392.724 140.335C392.692 140.862 392.777 141.324 392.979 141.723C393.187 142.119 393.524 142.415 393.991 142.613ZM399.907 147.424L404.151 137.374L406.853 138.516L406.113 140.269L406.218 140.313C406.664 139.767 407.171 139.426 407.737 139.29C408.305 139.149 408.871 139.198 409.433 139.435C409.573 139.494 409.72 139.567 409.874 139.652C410.028 139.738 410.159 139.822 410.269 139.904L409.224 142.377C409.11 142.282 408.944 142.171 408.725 142.043C408.507 141.915 408.302 141.81 408.11 141.729C407.7 141.556 407.296 141.491 406.897 141.533C406.505 141.573 406.149 141.711 405.829 141.945C405.513 142.182 405.269 142.505 405.096 142.915L402.695 148.601L399.907 147.424ZM411.193 148.782L412.611 145.442L413.017 145.613L417.847 143.158L421.046 144.509L414.589 147.734L413.928 147.455L411.193 148.782ZM407.446 150.608L413.105 137.208L415.892 138.385L410.233 151.785L407.446 150.608ZM413.727 153.26L412.618 147.634L415.308 146.45L416.992 154.639L413.727 153.26ZM437.629 155.46C437.012 156.921 436.21 158.047 435.223 158.838C434.241 159.631 433.16 160.097 431.981 160.236C430.808 160.373 429.63 160.192 428.448 159.693C427.257 159.19 426.303 158.468 425.585 157.528C424.867 156.587 424.449 155.488 424.332 154.231C424.216 152.974 424.465 151.617 425.08 150.16C425.697 148.699 426.497 147.572 427.48 146.779C428.462 145.986 429.54 145.521 430.713 145.384C431.888 145.243 433.071 145.424 434.261 145.927C435.444 146.426 436.394 147.146 437.112 148.087C437.836 149.025 438.257 150.122 438.373 151.379C438.494 152.638 438.246 153.998 437.629 155.46ZM434.757 154.247C435.157 153.3 435.352 152.442 435.343 151.672C435.338 150.905 435.152 150.245 434.783 149.694C434.415 149.142 433.888 148.722 433.203 148.433C432.518 148.144 431.85 148.059 431.198 148.179C430.546 148.3 429.94 148.625 429.382 149.155C428.829 149.687 428.352 150.427 427.952 151.373C427.553 152.32 427.355 153.177 427.36 153.945C427.369 154.714 427.558 155.375 427.926 155.926C428.295 156.477 428.821 156.898 429.506 157.187C430.191 157.476 430.86 157.561 431.512 157.44C432.164 157.32 432.767 156.994 433.32 156.462C433.878 155.931 434.357 155.193 434.757 154.247ZM436.846 163.024L441.09 152.974L443.792 154.115L443.052 155.868L443.157 155.913C443.603 155.366 444.11 155.025 444.676 154.889C445.244 154.749 445.809 154.797 446.372 155.035C446.512 155.094 446.658 155.166 446.812 155.252C446.967 155.337 447.098 155.421 447.207 155.503L446.163 157.976C446.049 157.882 445.882 157.771 445.664 157.642C445.446 157.514 445.241 157.41 445.049 157.329C444.639 157.155 444.235 157.09 443.836 157.133C443.444 157.173 443.088 157.31 442.768 157.545C442.452 157.782 442.208 158.105 442.034 158.515L439.633 164.201L436.846 163.024ZM447.551 167.737C446.788 167.415 446.18 166.927 445.726 166.272C445.279 165.616 445.036 164.827 444.998 163.907C444.967 162.983 445.187 161.961 445.661 160.84C446.147 159.689 446.737 158.81 447.43 158.203C448.125 157.592 448.86 157.226 449.635 157.107C450.417 156.984 451.176 157.079 451.913 157.39C452.476 157.628 452.904 157.922 453.198 158.272C453.499 158.62 453.704 158.985 453.816 159.366C453.934 159.744 453.996 160.095 454.004 160.417L454.089 160.453L456.217 155.415L458.998 156.589L453.339 169.988L450.591 168.828L451.271 167.218L451.153 167.169C450.904 167.393 450.602 167.591 450.246 167.765C449.896 167.936 449.494 168.031 449.039 168.049C448.588 168.07 448.092 167.966 447.551 167.737ZM449.371 165.892C449.821 166.082 450.252 166.12 450.664 166.007C451.084 165.891 451.47 165.645 451.824 165.27C452.182 164.897 452.487 164.412 452.739 163.814C452.991 163.217 453.128 162.663 453.148 162.152C453.168 161.641 453.072 161.2 452.859 160.827C452.647 160.455 452.316 160.174 451.866 159.984C451.408 159.791 450.97 159.752 450.551 159.868C450.132 159.984 449.748 160.228 449.401 160.601C449.054 160.973 448.757 161.449 448.512 162.029C448.266 162.614 448.128 163.165 448.1 163.682C448.078 164.197 448.168 164.646 448.371 165.03C448.58 165.411 448.913 165.699 449.371 165.892ZM460.127 173.087C459.094 172.65 458.292 172.065 457.723 171.331C457.16 170.595 456.841 169.756 456.766 168.815C456.693 167.869 456.88 166.866 457.327 165.806C457.764 164.772 458.348 163.95 459.079 163.338C459.81 162.727 460.632 162.357 461.544 162.228C462.461 162.102 463.413 162.247 464.398 162.663C465.061 162.943 465.634 163.31 466.115 163.765C466.602 164.218 466.97 164.746 467.219 165.35C467.472 165.955 467.583 166.629 467.552 167.372C467.523 168.11 467.328 168.906 466.967 169.761L466.644 170.527L458.158 166.943L458.887 165.216L464.75 167.691C464.919 167.29 464.982 166.898 464.938 166.514C464.895 166.131 464.755 165.787 464.519 165.481C464.289 165.174 463.971 164.934 463.566 164.763C463.142 164.584 462.726 164.524 462.316 164.582C461.912 164.638 461.549 164.79 461.228 165.04C460.909 165.285 460.663 165.606 460.491 166.001L459.797 167.643C459.587 168.14 459.498 168.609 459.528 169.048C459.563 169.489 459.709 169.88 459.966 170.22C460.223 170.56 460.585 170.828 461.052 171.025C461.362 171.156 461.664 171.232 461.958 171.254C462.252 171.275 462.527 171.237 462.784 171.14C463.041 171.043 463.271 170.888 463.474 170.676L465.98 171.935C465.587 172.499 465.091 172.926 464.49 173.217C463.895 173.506 463.225 173.644 462.48 173.633C461.74 173.619 460.956 173.437 460.127 173.087ZM466.642 175.606L470.886 165.557L473.588 166.698L472.848 168.451L472.952 168.496C473.399 167.949 473.905 167.608 474.472 167.472C475.04 167.331 475.605 167.38 476.168 167.618C476.307 167.677 476.454 167.749 476.608 167.835C476.762 167.92 476.894 168.004 477.003 168.086L475.959 170.559C475.844 170.465 475.678 170.353 475.46 170.225C475.242 170.097 475.036 169.992 474.845 169.911C474.435 169.738 474.03 169.673 473.632 169.716C473.24 169.756 472.884 169.893 472.564 170.128C472.248 170.364 472.003 170.688 471.83 171.098L469.429 176.784L466.642 175.606Z" fill="#3F3D56"/>
<path d="M224.387 150.176C223.893 151.345 223.251 152.246 222.462 152.879C221.676 153.513 220.811 153.886 219.868 153.997C218.929 154.107 217.987 153.962 217.042 153.563C216.089 153.16 215.325 152.583 214.751 151.83C214.176 151.078 213.843 150.199 213.749 149.193C213.656 148.187 213.855 147.102 214.347 145.936C214.841 144.767 215.481 143.866 216.267 143.231C217.053 142.597 217.915 142.225 218.854 142.116C219.793 142.003 220.74 142.148 221.692 142.55C222.638 142.949 223.398 143.525 223.973 144.278C224.552 145.028 224.888 145.906 224.982 146.912C225.079 147.919 224.88 149.007 224.387 150.176ZM222.089 149.206C222.409 148.448 222.565 147.762 222.558 147.146C222.554 146.532 222.405 146.004 222.11 145.563C221.815 145.122 221.394 144.786 220.846 144.555C220.298 144.323 219.763 144.256 219.241 144.352C218.72 144.448 218.236 144.708 217.789 145.133C217.346 145.558 216.965 146.15 216.645 146.907C216.325 147.664 216.167 148.35 216.171 148.964C216.178 149.58 216.329 150.108 216.624 150.549C216.919 150.99 217.34 151.327 217.888 151.558C218.436 151.789 218.971 151.857 219.493 151.761C220.014 151.664 220.497 151.403 220.94 150.978C221.386 150.554 221.769 149.963 222.089 149.206ZM222.487 159.242L227.155 148.187L229.354 149.116L228.783 150.466L228.883 150.508C229.072 150.333 229.306 150.173 229.585 150.028C229.87 149.881 230.193 149.795 230.557 149.772C230.925 149.747 231.335 149.829 231.785 150.019C232.371 150.267 232.847 150.649 233.213 151.165C233.58 151.678 233.782 152.304 233.82 153.043C233.858 153.779 233.683 154.608 233.294 155.529C232.915 156.426 232.451 157.122 231.9 157.617C231.355 158.11 230.767 158.411 230.138 158.52C229.513 158.626 228.895 158.55 228.285 158.292C227.852 158.109 227.514 157.882 227.271 157.611C227.031 157.341 226.861 157.058 226.761 156.76C226.662 156.459 226.609 156.176 226.602 155.91L226.534 155.881L224.717 160.184L222.487 159.242ZM227.64 153.129C227.439 153.607 227.329 154.052 227.311 154.464C227.293 154.876 227.368 155.234 227.535 155.539C227.704 155.841 227.968 156.068 228.328 156.219C228.69 156.373 229.039 156.403 229.375 156.31C229.711 156.214 230.02 156.015 230.299 155.713C230.583 155.41 230.824 155.025 231.022 154.557C231.218 154.093 231.326 153.657 231.345 153.25C231.365 152.843 231.291 152.487 231.124 152.182C230.957 151.877 230.69 151.648 230.324 151.493C229.961 151.34 229.613 151.306 229.281 151.392C228.952 151.479 228.647 151.671 228.365 151.967C228.084 152.264 227.842 152.651 227.64 153.129ZM236.685 161.87C235.858 161.521 235.217 161.053 234.762 160.466C234.311 159.877 234.056 159.206 233.996 158.453C233.937 157.696 234.087 156.894 234.445 156.046C234.794 155.219 235.261 154.561 235.846 154.072C236.431 153.583 237.088 153.287 237.819 153.184C238.552 153.083 239.313 153.198 240.102 153.531C240.632 153.755 241.09 154.049 241.475 154.413C241.865 154.775 242.159 155.198 242.358 155.681C242.561 156.165 242.65 156.704 242.625 157.298C242.602 157.889 242.446 158.526 242.157 159.21L241.898 159.822L235.109 156.956L235.693 155.574L240.383 157.554C240.518 157.233 240.569 156.919 240.534 156.613C240.499 156.306 240.387 156.031 240.198 155.786C240.014 155.54 239.76 155.348 239.436 155.211C239.097 155.068 238.764 155.02 238.436 155.067C238.113 155.111 237.823 155.233 237.566 155.433C237.31 155.63 237.113 155.886 236.976 156.202L236.421 157.516C236.253 157.913 236.181 158.288 236.205 158.64C236.233 158.993 236.35 159.305 236.556 159.577C236.762 159.849 237.051 160.064 237.425 160.221C237.672 160.326 237.914 160.387 238.149 160.404C238.385 160.421 238.605 160.391 238.811 160.313C239.016 160.236 239.2 160.112 239.362 159.942L241.367 160.949C241.053 161.4 240.656 161.742 240.175 161.975C239.699 162.206 239.163 162.317 238.567 162.307C237.975 162.296 237.348 162.15 236.685 161.87ZM241.897 163.886L245.292 155.847L247.454 156.759L246.861 158.162L246.945 158.198C247.302 157.761 247.707 157.488 248.16 157.379C248.615 157.266 249.067 157.305 249.517 157.495C249.629 157.542 249.747 157.6 249.87 157.669C249.993 157.737 250.098 157.804 250.186 157.87L249.35 159.849C249.259 159.773 249.126 159.684 248.951 159.581C248.776 159.479 248.612 159.395 248.459 159.33C248.131 159.192 247.807 159.14 247.489 159.174C247.175 159.206 246.89 159.316 246.634 159.503C246.381 159.693 246.186 159.951 246.047 160.279L244.126 164.828L241.897 163.886ZM249.926 167.456C249.413 167.239 248.993 166.957 248.667 166.61C248.343 166.259 248.138 165.858 248.053 165.407C247.973 164.954 248.045 164.462 248.269 163.931C248.458 163.485 248.698 163.144 248.99 162.91C249.282 162.676 249.609 162.526 249.97 162.46C250.33 162.395 250.71 162.39 251.11 162.448C251.512 162.507 251.921 162.601 252.335 162.731C252.823 162.88 253.219 162.993 253.523 163.072C253.828 163.148 254.064 163.169 254.23 163.137C254.395 163.104 254.515 163.002 254.587 162.831L254.6 162.8C254.74 162.468 254.744 162.167 254.611 161.898C254.482 161.629 254.227 161.415 253.846 161.254C253.445 161.085 253.088 161.039 252.776 161.116C252.465 161.191 252.215 161.344 252.026 161.577L250.035 160.539C250.346 160.094 250.73 159.759 251.187 159.533C251.646 159.303 252.159 159.195 252.725 159.208C253.296 159.218 253.902 159.359 254.544 159.631C254.991 159.819 255.396 160.052 255.76 160.329C256.128 160.608 256.424 160.924 256.649 161.278C256.877 161.633 257.011 162.023 257.05 162.446C257.09 162.866 257.01 163.316 256.808 163.794L254.518 169.216L252.403 168.323L252.874 167.208L252.811 167.182C252.576 167.379 252.31 167.527 252.012 167.628C251.716 167.725 251.394 167.763 251.044 167.743C250.697 167.72 250.324 167.624 249.926 167.456ZM251.214 166.187C251.542 166.325 251.859 166.383 252.165 166.36C252.472 166.334 252.745 166.239 252.982 166.076C253.219 165.913 253.398 165.69 253.517 165.408L253.877 164.554C253.788 164.57 253.675 164.572 253.537 164.559C253.403 164.543 253.255 164.52 253.091 164.488C252.93 164.452 252.769 164.415 252.608 164.376C252.449 164.334 252.305 164.295 252.176 164.261C251.898 164.189 251.643 164.154 251.413 164.155C251.182 164.156 250.982 164.205 250.813 164.303C250.646 164.397 250.519 164.548 250.43 164.758C250.302 165.061 250.314 165.34 250.466 165.593C250.623 165.845 250.872 166.042 251.214 166.187ZM263.919 163.713L263.212 165.388L258.37 163.343L259.078 161.668L263.919 163.713ZM260.99 160.206L263.22 161.148L260.055 168.643C259.968 168.849 259.931 169.023 259.945 169.165C259.961 169.303 260.015 169.418 260.108 169.511C260.204 169.605 260.327 169.683 260.477 169.747C260.581 169.791 260.69 169.826 260.802 169.853C260.915 169.877 261.002 169.895 261.063 169.908L260.712 171.715C260.586 171.703 260.412 171.677 260.191 171.637C259.968 171.6 259.709 171.526 259.415 171.414C258.869 171.208 258.428 170.937 258.092 170.602C257.76 170.269 257.556 169.882 257.478 169.443C257.401 169.003 257.475 168.52 257.701 167.995L260.99 160.206ZM261.976 172.366L265.372 164.326L267.601 165.268L264.206 173.308L261.976 172.366ZM266.929 163.763C266.598 163.623 266.36 163.393 266.216 163.073C266.076 162.751 266.072 162.435 266.203 162.124C266.333 161.817 266.561 161.603 266.888 161.482C267.219 161.359 267.551 161.367 267.882 161.507C268.214 161.647 268.449 161.878 268.589 162.2C268.733 162.52 268.74 162.834 268.611 163.141C268.48 163.451 268.248 163.668 267.917 163.791C267.59 163.912 267.261 163.903 266.929 163.763ZM269.559 175.753C268.746 175.41 268.115 174.94 267.668 174.344C267.226 173.746 266.975 173.069 266.916 172.312C266.859 171.552 267.004 170.76 267.352 169.937C267.703 169.106 268.17 168.448 268.753 167.962C269.338 167.473 269.998 167.181 270.734 167.084C271.475 166.986 272.251 167.108 273.064 167.452C273.877 167.795 274.505 168.266 274.947 168.864C275.395 169.46 275.647 170.138 275.704 170.898C275.763 171.655 275.617 172.448 275.266 173.279C274.919 174.102 274.452 174.759 273.867 175.248C273.284 175.733 272.622 176.025 271.882 176.124C271.146 176.22 270.372 176.096 269.559 175.753ZM270.299 174.03C270.668 174.186 271.021 174.212 271.358 174.107C271.695 173.999 272.004 173.788 272.285 173.475C272.568 173.163 272.809 172.773 273.007 172.306C273.204 171.838 273.316 171.394 273.341 170.973C273.37 170.554 273.306 170.185 273.148 169.868C272.99 169.55 272.726 169.313 272.356 169.157C271.983 169 271.624 168.973 271.279 169.079C270.938 169.185 270.626 169.395 270.342 169.707C270.062 170.02 269.823 170.41 269.625 170.878C269.428 171.346 269.315 171.789 269.285 172.209C269.26 172.629 269.328 172.999 269.489 173.318C269.655 173.635 269.925 173.873 270.299 174.03ZM279.225 174.173L277.262 178.821L275.032 177.879L278.427 169.84L280.552 170.737L279.953 172.156L280.047 172.195C280.423 171.803 280.877 171.559 281.411 171.464C281.946 171.365 282.512 171.442 283.109 171.693C283.667 171.929 284.102 172.257 284.414 172.677C284.727 173.096 284.902 173.581 284.941 174.132C284.981 174.68 284.869 175.266 284.605 175.89L282.444 181.009L280.214 180.068L282.208 175.347C282.419 174.856 282.455 174.419 282.317 174.036C282.18 173.649 281.888 173.361 281.442 173.173C281.142 173.046 280.849 172.999 280.564 173.031C280.283 173.064 280.025 173.177 279.792 173.37C279.563 173.562 279.374 173.829 279.225 174.173ZM293.317 178.829L291.223 178.093C291.262 177.904 291.253 177.715 291.197 177.527C291.142 177.335 291.038 177.158 290.885 176.994C290.737 176.829 290.534 176.692 290.276 176.583C289.93 176.437 289.608 176.387 289.309 176.433C289.011 176.476 288.811 176.618 288.71 176.859C288.629 177.051 288.637 177.245 288.734 177.443C288.832 177.64 289.05 177.858 289.39 178.096L290.721 179.004C291.435 179.494 291.909 179.998 292.142 180.517C292.376 181.035 292.37 181.583 292.126 182.162C291.903 182.689 291.553 183.086 291.074 183.353C290.599 183.621 290.046 183.753 289.414 183.75C288.787 183.744 288.125 183.594 287.427 183.299C286.363 182.85 285.608 182.27 285.164 181.56C284.724 180.848 284.613 180.085 284.829 179.272L287.07 180.083C287 180.436 287.056 180.751 287.238 181.03C287.422 181.305 287.713 181.526 288.111 181.694C288.502 181.859 288.847 181.917 289.148 181.867C289.454 181.815 289.659 181.67 289.764 181.43C289.846 181.227 289.831 181.025 289.718 180.825C289.606 180.621 289.391 180.411 289.071 180.194L287.796 179.329C287.077 178.84 286.608 178.321 286.387 177.772C286.171 177.224 286.189 176.65 286.442 176.049C286.661 175.533 286.988 175.147 287.425 174.892C287.865 174.638 288.383 174.517 288.978 174.53C289.576 174.544 290.219 174.696 290.907 174.986C291.922 175.415 292.63 175.967 293.032 176.643C293.437 177.319 293.532 178.048 293.317 178.829Z" fill="#3F3D56"/>
<path d="M314.622 150.236L232 115.365L253.71 63.9268L336.332 98.7986L314.622 150.236ZM234.734 114.254L313.511 147.503L333.599 99.9096L254.821 66.6605L234.734 114.254Z" fill="#E5E5E5"/>
<path d="M334.965 99.3539L254.266 65.2935L233.367 114.809L314.067 148.869L334.965 99.3539Z" fill="white"/>
<path d="M329.669 111.903L330.952 108.863L319.757 104.138L323.77 94.6289L320.73 93.3458L316.717 102.855L296.786 94.443L300.8 84.9339L297.76 83.6507L293.746 93.1599L263.006 80.1856L267.019 70.6764L263.979 69.3932L259.966 78.9024L250.252 74.8026L248.969 77.8429L258.683 81.9426L253.692 93.7658L243.979 89.666L242.696 92.7063L252.409 96.806L247.063 109.474L237.349 105.374L236.066 108.414L262.163 119.429L259.464 125.823L262.504 127.107L265.203 120.712L279.56 126.771L276.861 133.166L279.901 134.449L282.6 128.055L316.766 142.475L318.049 139.434L283.883 125.014L289.23 112.347L323.395 126.767L324.679 123.726L313.484 119.001L318.474 107.178L329.669 111.903ZM292.463 96.2001L290.895 99.9159L260.154 86.9416L261.723 83.2258L292.463 96.2001ZM258.871 89.9819L289.611 102.956L287.473 108.023L256.733 95.0489L258.871 89.9819ZM250.103 110.757L255.449 98.0892L268.793 103.721L263.446 116.389L250.103 110.757ZM280.843 123.731L266.486 117.672L271.833 105.004L286.19 111.063L280.843 123.731ZM310.443 117.718L290.513 109.306L295.503 97.4833L315.434 105.895L310.443 117.718Z" fill="#E6E6E6"/>
<path d="M317.032 83.1728C313.634 91.2241 291.486 103.007 291.486 103.007C291.486 103.007 284.478 78.9183 287.876 70.8671C289.508 67.0008 292.608 63.941 296.496 62.361C300.384 60.781 304.74 60.8101 308.607 62.4419C312.473 64.0738 315.533 67.1747 317.113 71.0625C318.693 74.9503 318.664 79.3065 317.032 83.1728Z" fill="#6C63FF"/>
<path d="M309.386 79.1989C308.829 80.517 307.895 81.6405 306.7 82.4273C305.505 83.2142 304.104 83.6291 302.673 83.6195C301.242 83.61 299.847 83.1764 298.663 82.3736C297.478 81.5709 296.559 80.435 296.02 79.1096C295.481 77.7842 295.348 76.3289 295.636 74.9276C295.925 73.5263 296.622 72.2421 297.641 71.2372C298.659 70.2324 299.953 69.5521 301.358 69.2824C302.763 69.0127 304.216 69.1656 305.534 69.7219C306.41 70.0909 307.204 70.6289 307.871 71.305C308.539 71.9811 309.066 72.7821 309.424 73.6622C309.782 74.5424 309.962 75.4844 309.956 76.4344C309.949 77.3844 309.755 78.3238 309.386 79.1989Z" fill="white"/>
<path d="M287.045 113.528C289.215 114.444 291.717 113.428 292.633 111.257C293.549 109.087 292.532 106.585 290.362 105.669C288.192 104.753 285.69 105.77 284.774 107.94C283.858 110.11 284.875 112.612 287.045 113.528Z" fill="#6C63FF"/>
<rect x="244.245" y="90" width="86.4844" height="3.22796" transform="rotate(22.6908 244.245 90)" fill="#6C63FF"/>
</g>
<defs>
<clipPath id="clip0_1010_6305">
<rect width="561" height="585" fill="white"/>
</clipPath>
</defs>
</svg>
