<svg width="952" height="586" viewBox="0 0 952 586" fill="none" xmlns="http://www.w3.org/2000/svg">
<g clip-path="url(#clip0_1010_6433)">
<rect width="952" height="586" fill="white"/>
<g clip-path="url(#clip1_1010_6433)">
<path d="M46.6334 540.233C47.0318 555.103 49.5229 569.843 54.0334 584.018C54.1334 584.347 54.2444 584.671 54.3524 585H81.9654C81.9364 584.705 81.9064 584.376 81.8774 584.018C80.0364 562.852 90.5544 435.565 103.246 413.535C102.134 415.322 44.4924 472.979 46.6334 540.233Z" fill="#F1F1F1"/>
<path d="M48.7055 584.018C48.9365 584.347 49.1765 584.676 49.4225 585H70.1385C69.9815 584.72 69.7995 584.391 69.5885 584.018C66.1665 577.842 56.0375 559.376 46.6355 540.233C36.5355 519.661 27.2615 498.309 28.0425 490.581C27.8005 492.323 20.8085 545.457 48.7055 584.018Z" fill="#F1F1F1"/>
<path d="M651.291 120.577C652.082 122.532 653.291 124.289 654.834 125.726C656.377 127.163 658.217 128.244 660.223 128.893C662.229 129.542 664.353 129.744 666.445 129.483C668.537 129.222 670.547 128.506 672.333 127.385L712.312 159.454L714.787 132.936L676.442 106.548C674.36 103.673 671.295 101.662 667.829 100.896C664.363 100.13 660.736 100.662 657.636 102.391C654.535 104.12 652.177 106.927 651.008 110.279C649.839 113.63 649.939 117.295 651.291 120.577Z" fill="#9F616A"/>
<path d="M713.205 130.446L698.283 119.903L681.358 139.458L701.046 151.126L713.205 130.446Z" fill="#2B66FF"/>
<path d="M709.937 123.296L760.224 142.645L808.633 110.947C813.636 107.671 819.66 106.328 825.58 107.168C831.501 108.008 836.913 110.974 840.807 115.513C844.701 120.051 846.81 125.852 846.74 131.831C846.67 137.811 844.427 143.561 840.428 148.007L839.995 148.488L765.541 188.406L684.215 151.253L709.937 123.296Z" fill="#3F3D56"/>
<path d="M695.76 583H171.76L190.76 212H272.76L348.374 265H714.76L695.76 583Z" fill="#E5E5E5"/>
<path d="M567.489 469.863L264.624 345.135C263.566 344.697 262.723 343.858 262.283 342.8C261.842 341.743 261.839 340.553 262.274 339.494L399.508 6.26227C399.946 5.20345 400.785 4.3614 401.843 3.92082C402.9 3.48025 404.089 3.47714 405.149 3.91219L708.014 128.64C709.073 129.078 709.915 129.917 710.356 130.975C710.796 132.032 710.799 133.222 710.364 134.281L573.13 467.513C572.693 468.572 571.853 469.414 570.796 469.854C569.738 470.295 568.549 470.298 567.489 469.863Z" fill="white"/>
<path d="M567.489 469.863L264.624 345.135C263.566 344.697 262.723 343.858 262.283 342.8C261.842 341.743 261.839 340.553 262.274 339.494L399.508 6.26227C399.946 5.20345 400.785 4.3614 401.843 3.92082C402.9 3.48025 404.089 3.47714 405.149 3.91219L708.014 128.64C709.073 129.078 709.915 129.917 710.356 130.975C710.796 132.032 710.799 133.222 710.364 134.281L573.13 467.513C572.693 468.572 571.853 469.414 570.796 469.854C569.738 470.295 568.549 470.298 567.489 469.863ZM404.491 5.51042C403.855 5.24936 403.142 5.2512 402.507 5.51555C401.873 5.7799 401.369 6.28515 401.106 6.92047L263.872 340.152C263.611 340.788 263.613 341.501 263.878 342.136C264.142 342.77 264.647 343.274 265.283 343.536L568.147 468.265C568.783 468.526 569.497 468.524 570.131 468.259C570.766 467.995 571.27 467.49 571.532 466.855L708.766 133.623C709.027 132.987 709.025 132.274 708.761 131.639C708.496 131.005 707.991 130.501 707.356 130.239L404.491 5.51042Z" fill="#3F3D56"/>
<path d="M595.072 294.072C597.873 295.689 601.455 294.729 603.072 291.928C604.689 289.127 603.729 285.545 600.928 283.928C598.127 282.311 594.545 283.271 592.928 286.072C591.311 288.873 592.271 292.455 595.072 294.072Z" fill="#2B66FF"/>
<path d="M596.38 290.645C596.266 290.579 596.176 290.478 596.125 290.357L596.121 290.349L595.456 288.748C595.425 288.674 595.409 288.595 595.409 288.514C595.409 288.434 595.424 288.354 595.455 288.28C595.486 288.205 595.531 288.138 595.588 288.081C595.644 288.024 595.712 287.979 595.786 287.948C595.86 287.917 595.94 287.901 596.02 287.901C596.101 287.901 596.18 287.917 596.255 287.948C596.329 287.979 596.397 288.024 596.453 288.081C596.51 288.138 596.555 288.205 596.586 288.28L597.016 289.317L600.214 287.991C600.288 287.961 600.368 287.945 600.448 287.945C600.528 287.945 600.608 287.961 600.682 287.991C600.756 288.022 600.824 288.067 600.881 288.124C600.937 288.18 600.982 288.248 601.013 288.322C601.075 288.472 601.075 288.641 601.013 288.79C600.951 288.94 600.832 289.059 600.683 289.121L596.921 290.681C596.834 290.717 596.74 290.732 596.646 290.726C596.553 290.72 596.462 290.692 596.38 290.645Z" fill="white"/>
<path d="M584.199 260.739L374.153 174.659C373.731 174.486 373.347 174.232 373.023 173.911C372.7 173.591 372.443 173.21 372.267 172.791C372.092 172.371 372.001 171.921 372 171.467C371.999 171.013 372.088 170.563 372.262 170.142C372.436 169.722 372.691 169.34 373.013 169.018C373.336 168.696 373.718 168.441 374.14 168.266C374.561 168.091 375.013 168.001 375.47 168C375.926 167.999 376.379 168.088 376.801 168.261L586.847 254.341C587.7 254.69 588.378 255.362 588.733 256.209C589.087 257.057 589.089 258.009 588.738 258.858C588.387 259.706 587.711 260.381 586.86 260.734C586.009 261.087 585.052 261.089 584.199 260.739Z" fill="#CCCCCC"/>
<path d="M542.416 273.156L364.213 199.767C363.741 199.573 363.311 199.287 362.949 198.927C362.587 198.567 362.3 198.138 362.104 197.667C361.907 197.196 361.806 196.69 361.805 196.179C361.804 195.669 361.903 195.163 362.098 194.691C362.292 194.218 362.578 193.789 362.938 193.427C363.299 193.065 363.727 192.778 364.198 192.582C364.67 192.385 365.175 192.284 365.686 192.282C366.197 192.281 366.702 192.381 367.175 192.575L545.378 265.964C546.331 266.357 547.09 267.113 547.486 268.065C547.883 269.017 547.885 270.088 547.493 271.041C547.1 271.995 546.344 272.754 545.392 273.15C544.44 273.547 543.369 273.549 542.416 273.156Z" fill="#CCCCCC"/>
<path d="M617.367 227.591L539.408 195.485C538.454 195.092 537.696 194.337 537.299 193.385C536.902 192.432 536.9 191.362 537.293 190.408C537.686 189.454 538.441 188.696 539.393 188.299C540.346 187.902 541.416 187.9 542.37 188.293L620.329 220.399C621.283 220.791 622.041 221.547 622.438 222.499C622.834 223.451 622.837 224.522 622.444 225.476C622.051 226.429 621.296 227.188 620.343 227.585C619.391 227.981 618.321 227.983 617.367 227.591Z" fill="#CCCCCC"/>
<path d="M588.951 321.295L354.011 224.54C353.539 224.345 353.11 224.06 352.748 223.7C352.386 223.339 352.099 222.911 351.902 222.44C351.706 221.968 351.604 221.463 351.603 220.952C351.602 220.441 351.702 219.935 351.896 219.463C352.091 218.991 352.376 218.561 352.736 218.2C353.097 217.838 353.525 217.55 353.996 217.354C354.468 217.158 354.973 217.056 355.484 217.055C355.995 217.054 356.501 217.153 356.973 217.348L591.913 314.103C592.867 314.496 593.625 315.251 594.022 316.203C594.419 317.155 594.421 318.226 594.028 319.18C593.635 320.133 592.88 320.892 591.928 321.289C590.976 321.685 589.905 321.688 588.951 321.295Z" fill="#CCCCCC"/>
<path d="M522.012 322.702L343.809 249.313C343.337 249.118 342.907 248.833 342.546 248.472C342.184 248.112 341.896 247.684 341.7 247.212C341.504 246.741 341.402 246.235 341.401 245.725C341.4 245.214 341.499 244.708 341.694 244.236C341.888 243.763 342.174 243.334 342.534 242.972C342.895 242.61 343.323 242.323 343.794 242.127C344.266 241.93 344.771 241.829 345.282 241.828C345.793 241.827 346.299 241.926 346.771 242.121L524.974 315.509C525.446 315.704 525.875 315.99 526.237 316.35C526.599 316.71 526.886 317.138 527.083 317.61C527.279 318.081 527.381 318.587 527.382 319.098C527.383 319.608 527.283 320.114 527.089 320.586C526.894 321.059 526.609 321.488 526.248 321.85C525.888 322.212 525.46 322.499 524.988 322.695C524.517 322.892 524.011 322.993 523.501 322.995C522.99 322.996 522.484 322.896 522.012 322.702Z" fill="#CCCCCC"/>
<path d="M568.547 370.84L333.607 274.085C332.653 273.692 331.894 272.937 331.498 271.985C331.101 271.033 331.099 269.962 331.492 269.008C331.885 268.054 332.64 267.296 333.592 266.899C334.544 266.503 335.615 266.5 336.569 266.893L571.509 363.648C572.462 364.041 573.221 364.796 573.618 365.748C574.014 366.7 574.017 367.771 573.624 368.725C573.231 369.679 572.475 370.437 571.523 370.834C570.571 371.23 569.501 371.233 568.547 370.84Z" fill="#CCCCCC"/>
<path d="M558.345 395.613L323.405 298.858C322.451 298.465 321.692 297.709 321.296 296.757C320.899 295.805 320.897 294.735 321.29 293.781C321.682 292.827 322.438 292.069 323.39 291.672C324.342 291.275 325.413 291.273 326.367 291.666L561.307 388.421C561.779 388.615 562.208 388.901 562.57 389.261C562.932 389.622 563.219 390.05 563.416 390.521C563.612 390.993 563.714 391.498 563.715 392.009C563.716 392.519 563.616 393.025 563.422 393.498C563.227 393.97 562.942 394.399 562.581 394.761C562.221 395.123 561.793 395.41 561.321 395.607C560.85 395.803 560.344 395.905 559.834 395.906C559.323 395.907 558.817 395.807 558.345 395.613Z" fill="#CCCCCC"/>
<path d="M443.73 393.772C448.432 394.021 453.146 393.877 457.824 393.342C462.037 392.85 466.425 392.172 470.118 389.957C471.715 389.046 473.074 387.771 474.086 386.236C475.097 384.701 475.732 382.949 475.939 381.122C476.102 379.384 475.708 377.64 474.813 376.141C473.919 374.642 472.57 373.467 470.964 372.785C469.333 372.099 467.548 371.866 465.796 372.111C464.044 372.357 462.391 373.071 461.012 374.179C459.539 375.459 458.374 377.054 457.604 378.846C456.833 380.639 456.477 382.582 456.563 384.531C456.757 392.536 463.09 400.441 470.122 403.77C478.043 407.52 488.86 404.333 490.888 395.098C491.31 393.177 488.694 392.51 487.6 393.744C486.107 395.39 485.299 397.544 485.34 399.767C485.382 401.989 486.271 404.111 487.824 405.7C489.378 407.289 491.48 408.225 493.701 408.317C495.921 408.408 498.093 407.648 499.773 406.192L496.828 404.98C497.684 408.565 499.469 411.862 502.003 414.539C504.537 417.216 507.732 419.178 511.266 420.228C513.009 420.751 514.817 421.026 516.637 421.047C518.849 421.053 521.122 422.163 523.237 422.853L538.481 427.819C540.724 428.549 542.146 425.146 539.886 424.409L526.08 419.911C523.779 419.162 521.484 418.392 519.176 417.662C517.527 417.141 515.721 417.423 514 417.116C510.78 416.507 507.799 414.995 505.406 412.756C503.012 410.517 501.304 407.644 500.481 404.471C500.431 404.156 500.301 403.858 500.102 403.608C499.904 403.357 499.645 403.161 499.349 403.039C499.054 402.918 498.732 402.874 498.414 402.912C498.097 402.951 497.795 403.07 497.537 403.259C496.573 404.177 495.284 404.676 493.953 404.649C492.622 404.622 491.356 404.07 490.43 403.113C489.504 402.156 488.993 400.873 489.009 399.541C489.025 398.21 489.566 396.939 490.515 396.005L487.227 394.65C485.918 400.608 478.651 402.844 473.414 401.121C467.556 399.195 462.522 393.588 460.775 387.716C460.307 386.305 460.136 384.813 460.271 383.333C460.407 381.853 460.846 380.417 461.561 379.114C462.199 377.926 463.193 376.967 464.404 376.374C465.615 375.781 466.982 375.583 468.312 375.807C469.499 375.975 470.575 376.598 471.312 377.544C472.049 378.49 472.39 379.685 472.262 380.878C472.067 382.219 471.545 383.492 470.742 384.585C469.939 385.677 468.879 386.555 467.657 387.142C464.361 388.911 460.413 389.352 456.751 389.753C452.576 390.207 448.372 390.327 444.178 390.111C441.824 389.992 441.351 393.653 443.73 393.772Z" fill="#2B66FF"/>
<path d="M695.76 290V583H171.76V237H253.76L329.37 290H695.76Z" fill="white"/>
<path d="M417.76 528H203.76V545H417.76V528Z" fill="#2B66FF"/>
<path d="M310.76 495H203.76V512H310.76V495Z" fill="#2B66FF"/>
<path d="M696.76 584H170.76V236H254.075L329.689 289H696.76V584ZM172.76 582H694.76V291H329.058L253.444 238H172.76V582Z" fill="#3F3D56"/>
<path d="M909.144 548.636L891.414 554.972L858.535 489.598L884.704 480.246L909.144 548.636Z" fill="#9F616A"/>
<path d="M862.639 584.638L862.38 583.915C860.278 578.013 860.604 571.518 863.285 565.855C865.966 560.193 870.783 555.825 876.68 553.709L911.598 541.23L919.81 564.207L862.639 584.638Z" fill="#2F2E41"/>
<path d="M793.848 566.172H775.019L766.062 493.546L793.851 493.547L793.848 566.172Z" fill="#9F616A"/>
<path d="M798.65 584.424L737.938 584.422V583.654C737.938 580.551 738.549 577.478 739.736 574.611C740.924 571.744 742.665 569.139 744.859 566.945C747.053 564.75 749.658 563.01 752.526 561.822C755.393 560.635 758.465 560.024 761.569 560.024H761.57L798.651 560.025L798.65 584.424Z" fill="#2F2E41"/>
<path d="M836.759 102.186L828.57 86.0059C828.57 86.0059 798.065 93.6487 795.292 111.329L836.759 102.186Z" fill="#2B66FF"/>
<path d="M870.547 287.198L848.278 411.467L907.407 516.036L872.083 529.858L812.186 428.494L804.507 400.849L799.899 545.216L768.042 544.249L753.435 409.445L776.862 284.127L870.547 287.198Z" fill="#2F2E41"/>
<path d="M865.938 231.055L865.168 158.183C865.168 127.3 844.842 104.536 842.025 102.431C840.699 98.1997 838.32 95.2752 834.957 93.7447C828.181 90.6738 819.895 94.3588 819.544 94.5245L794.685 103.844L794.568 104.185C794.304 104.965 769.222 187.274 762.924 207.931C762.027 210.895 761.51 212.591 761.51 212.591C761.51 212.591 761.608 217.368 761.783 224.796C762.339 250.338 763.655 307.231 764.181 309.62C764.181 309.62 810.098 316.58 828.279 316.58C860.986 316.58 881.76 310.321 882.228 310.214L882.979 310.058L865.938 231.055Z" fill="#3F3D56"/>
<path d="M819.257 76.7928C835.544 67.8898 841.53 47.4694 832.627 31.1827C823.724 14.896 803.303 8.9104 787.017 17.8134C770.73 26.7165 764.744 47.1368 773.647 63.4235C782.55 79.7102 802.971 85.6959 819.257 76.7928Z" fill="#9F616A"/>
<path opacity="0.2" d="M806.861 215.633L761.783 224.796C761.608 217.368 761.51 212.591 761.51 212.591C761.51 212.591 762.027 210.895 762.924 207.931L806.861 215.633Z" fill="black"/>
<path d="M673.369 206.027C674.97 207.399 676.852 208.404 678.883 208.971C680.914 209.537 683.045 209.651 685.124 209.305C687.204 208.959 689.183 208.161 690.921 206.968C692.659 205.774 694.115 204.214 695.185 202.397L745.433 212.491L735.437 187.805L689.253 182.004C686.081 180.409 682.435 180.032 679.005 180.946C675.574 181.859 672.598 183.999 670.641 186.961C668.683 189.922 667.879 193.498 668.382 197.012C668.885 200.526 670.66 203.734 673.369 206.027Z" fill="#9F616A"/>
<path d="M732.887 186.321L714.788 183.82L708.751 208.968L731.599 210.276L732.887 186.321Z" fill="#2B66FF"/>
<path d="M726.698 181.474L780.25 175.533L808.662 125.125C811.598 119.916 816.33 115.953 821.974 113.976C827.618 112 833.788 112.145 839.332 114.385C844.877 116.625 849.417 120.806 852.105 126.148C854.792 131.49 855.444 137.627 853.938 143.414L853.775 144.04L806.014 213.724L716.712 218.129L726.698 181.474Z" fill="#3F3D56"/>
<path d="M831.763 76.4827L803.868 77.484C802.168 77.545 797.553 59.1946 796.949 55.3878C796.472 52.9095 795.108 50.6897 793.114 49.143C791.12 47.5963 788.63 46.8285 786.111 46.983C784.023 47.1802 778.758 43.2791 773.324 38.6597C763.009 29.8899 763.545 13.4187 774.877 6.00817C775.186 5.80563 775.49 5.6207 775.789 5.45336C782.937 1.45224 791.3 0.10862 799.491 0.00616026C806.917 -0.0867197 814.553 0.847922 821.095 4.36268C832.824 10.6639 839.065 24.4338 839.614 37.7364C840.162 51.039 835.897 64.0466 831.058 76.4498" fill="#2F2E41"/>
<path d="M951 586H1C0.734784 586 0.480429 585.895 0.292892 585.707C0.105356 585.52 0 585.265 0 585C0 584.735 0.105356 584.48 0.292892 584.293C0.480429 584.105 0.734784 584 1 584H951C951.265 584 951.52 584.105 951.707 584.293C951.895 584.48 952 584.735 952 585C952 585.265 951.895 585.52 951.707 585.707C951.52 585.895 951.265 586 951 586Z" fill="#CBCBCB"/>
<path d="M221.31 458.276C221.196 457.13 220.708 456.24 219.847 455.605C218.985 454.971 217.815 454.653 216.338 454.653C215.334 454.653 214.487 454.795 213.795 455.08C213.104 455.354 212.574 455.738 212.205 456.23C211.845 456.723 211.665 457.281 211.665 457.906C211.646 458.427 211.755 458.882 211.991 459.27C212.238 459.658 212.574 459.994 213 460.278C213.426 460.553 213.919 460.795 214.477 461.003C215.036 461.202 215.633 461.372 216.267 461.514L218.881 462.139C220.15 462.423 221.314 462.802 222.375 463.276C223.436 463.749 224.354 464.331 225.131 465.023C225.907 465.714 226.509 466.528 226.935 467.466C227.37 468.403 227.593 469.478 227.602 470.69C227.593 472.471 227.138 474.014 226.239 475.321C225.348 476.618 224.061 477.627 222.375 478.347C220.699 479.057 218.677 479.412 216.31 479.412C213.961 479.412 211.916 479.052 210.173 478.332C208.44 477.613 207.086 476.547 206.111 475.136C205.145 473.716 204.638 471.959 204.591 469.866H210.543C210.609 470.842 210.888 471.656 211.381 472.31C211.883 472.954 212.55 473.441 213.384 473.773C214.226 474.095 215.178 474.256 216.239 474.256C217.28 474.256 218.185 474.104 218.952 473.801C219.728 473.498 220.33 473.077 220.756 472.537C221.182 471.997 221.395 471.377 221.395 470.676C221.395 470.023 221.201 469.473 220.812 469.028C220.434 468.583 219.875 468.205 219.136 467.892C218.407 467.58 217.512 467.295 216.452 467.04L213.284 466.244C210.831 465.648 208.895 464.715 207.474 463.446C206.054 462.177 205.348 460.468 205.358 458.318C205.348 456.557 205.817 455.018 206.764 453.702C207.721 452.385 209.032 451.358 210.699 450.619C212.366 449.881 214.259 449.511 216.381 449.511C218.54 449.511 220.424 449.881 222.034 450.619C223.653 451.358 224.913 452.385 225.812 453.702C226.712 455.018 227.176 456.543 227.205 458.276H221.31ZM257.407 460.094H251.185C251.072 459.289 250.84 458.574 250.489 457.949C250.139 457.314 249.689 456.775 249.14 456.33C248.591 455.884 247.956 455.544 247.237 455.307C246.526 455.07 245.754 454.952 244.921 454.952C243.415 454.952 242.104 455.326 240.987 456.074C239.869 456.812 239.003 457.892 238.387 459.312C237.772 460.723 237.464 462.437 237.464 464.455C237.464 466.528 237.772 468.271 238.387 469.682C239.012 471.093 239.883 472.158 241.001 472.878C242.118 473.598 243.411 473.957 244.879 473.957C245.702 473.957 246.465 473.848 247.165 473.631C247.876 473.413 248.505 473.096 249.055 472.679C249.604 472.253 250.058 471.737 250.418 471.131C250.788 470.525 251.043 469.833 251.185 469.057L257.407 469.085C257.246 470.42 256.844 471.708 256.2 472.949C255.565 474.18 254.708 475.283 253.629 476.259C252.558 477.224 251.28 477.991 249.793 478.56C248.316 479.118 246.645 479.398 244.779 479.398C242.184 479.398 239.864 478.811 237.819 477.636C235.783 476.462 234.173 474.762 232.989 472.537C231.815 470.312 231.228 467.617 231.228 464.455C231.228 461.282 231.825 458.583 233.018 456.358C234.211 454.133 235.83 452.437 237.876 451.273C239.921 450.098 242.222 449.511 244.779 449.511C246.465 449.511 248.027 449.748 249.467 450.222C250.915 450.695 252.199 451.386 253.316 452.295C254.433 453.195 255.343 454.298 256.043 455.605C256.754 456.912 257.208 458.408 257.407 460.094ZM261.817 479V449.909H267.968V461.912H280.454V449.909H286.59V479H280.454V466.983H267.968V479H261.817ZM291.661 479V449.909H311.263V454.98H297.812V461.912H310.255V466.983H297.812V473.929H311.32V479H291.661ZM316.153 449.909H323.739L331.75 469.455H332.091L340.102 449.909H347.688V479H341.722V460.065H341.48L333.952 478.858H329.889L322.361 459.994H322.119V479H316.153V449.909ZM352.755 479V449.909H372.357V454.98H358.906V461.912H371.349V466.983H358.906V473.929H372.414V479H352.755Z" fill="#2B66FF"/>
<path d="M527.739 133.264L529.585 118.248L532.678 119.559L530.95 129.804L531.061 129.851L537.451 121.583L540.1 122.706L538.586 133.064L538.703 133.114L544.873 124.729L547.966 126.041L538.457 137.808L535.697 136.638L536.859 126.801L536.754 126.757L530.499 134.434L527.739 133.264ZM558.194 138.276C557.575 139.736 556.771 140.861 555.783 141.651C554.8 142.443 553.718 142.907 552.539 143.045C551.365 143.18 550.188 142.997 549.007 142.496C547.816 141.992 546.863 141.269 546.146 140.327C545.429 139.386 545.014 138.286 544.899 137.029C544.784 135.772 545.035 134.415 545.652 132.959C546.271 131.499 547.072 130.373 548.056 129.581C549.04 128.789 550.118 128.326 551.291 128.191C552.466 128.051 553.649 128.234 554.839 128.738C556.02 129.239 556.97 129.96 557.686 130.902C558.409 131.841 558.828 132.939 558.943 134.197C559.063 135.456 558.813 136.815 558.194 138.276ZM555.323 137.059C555.724 136.113 555.921 135.255 555.913 134.485C555.909 133.718 555.723 133.058 555.356 132.506C554.988 131.954 554.462 131.533 553.777 131.243C553.093 130.953 552.425 130.867 551.772 130.987C551.12 131.106 550.514 131.431 549.956 131.96C549.401 132.491 548.924 133.23 548.523 134.176C548.122 135.122 547.923 135.979 547.926 136.747C547.934 137.516 548.122 138.177 548.49 138.729C548.858 139.281 549.384 139.702 550.068 139.992C550.753 140.282 551.421 140.367 552.073 140.248C552.726 140.129 553.329 139.803 553.883 139.272C554.442 138.742 554.922 138.005 555.323 137.059ZM557.452 145.861L563.13 132.469L568.413 134.709C569.424 135.138 570.211 135.685 570.772 136.349C571.34 137.012 571.672 137.752 571.768 138.569C571.87 139.383 571.733 140.233 571.358 141.118C570.981 142.008 570.465 142.691 569.81 143.169C569.156 143.643 568.394 143.896 567.521 143.927C566.654 143.961 565.705 143.759 564.676 143.323L561.139 141.823L562.104 139.548L565.183 140.853C565.724 141.082 566.204 141.199 566.625 141.202C567.045 141.205 567.405 141.096 567.705 140.873C568.01 140.653 568.255 140.322 568.442 139.882C568.63 139.437 568.7 139.024 568.651 138.644C568.606 138.264 568.435 137.92 568.14 137.609C567.851 137.297 567.434 137.025 566.889 136.794L564.98 135.984L560.284 147.061L557.452 145.861ZM567.268 142.832L568.013 150.338L564.887 149.013L564.214 141.538L567.268 142.832ZM569.536 150.984L575.214 137.592L578.045 138.792L575.542 144.697L575.718 144.772L583.041 140.91L586.434 142.349L578.923 146.238L580.816 155.766L577.429 154.33L576.095 147.269L573.981 148.378L572.368 152.184L569.536 150.984ZM601.638 156.694C601.019 158.154 600.216 159.279 599.228 160.069C598.244 160.86 597.163 161.325 595.983 161.463C594.81 161.598 593.633 161.415 592.451 160.914C591.261 160.41 590.308 159.687 589.591 158.745C588.874 157.803 588.458 156.704 588.343 155.447C588.228 154.189 588.479 152.833 589.097 151.377C589.716 149.916 590.517 148.79 591.501 147.999C592.484 147.207 593.563 146.744 594.736 146.609C595.911 146.469 597.094 146.652 598.284 147.156C599.465 147.657 600.414 148.378 601.131 149.32C601.854 150.259 602.273 151.357 602.388 152.614C602.507 153.874 602.257 155.233 601.638 156.694ZM598.768 155.477C599.169 154.531 599.365 153.673 599.357 152.903C599.354 152.136 599.168 151.476 598.8 150.924C598.433 150.372 597.906 149.951 597.222 149.661C596.538 149.371 595.869 149.285 595.217 149.405C594.565 149.524 593.959 149.849 593.4 150.378C592.846 150.909 592.368 151.648 591.967 152.594C591.566 153.54 591.368 154.397 591.371 155.164C591.379 155.934 591.567 156.595 591.935 157.147C592.302 157.699 592.829 158.12 593.513 158.41C594.197 158.7 594.866 158.785 595.518 158.666C596.17 158.546 596.774 158.221 597.328 157.69C597.887 157.16 598.367 156.423 598.768 155.477ZM600.897 164.279L606.574 150.887L611.858 153.127C612.869 153.556 613.656 154.102 614.217 154.767C614.785 155.43 615.117 156.17 615.213 156.987C615.315 157.801 615.178 158.651 614.803 159.536C614.426 160.425 613.91 161.109 613.254 161.587C612.601 162.061 611.838 162.314 610.966 162.345C610.098 162.378 609.15 162.177 608.121 161.741L604.584 160.241L605.548 157.966L608.628 159.271C609.169 159.5 609.649 159.617 610.069 159.62C610.49 159.623 610.85 159.514 611.15 159.291C611.454 159.071 611.7 158.74 611.886 158.3C612.075 157.855 612.145 157.442 612.095 157.061C612.05 156.682 611.88 156.338 611.585 156.027C611.296 155.714 610.879 155.443 610.334 155.212L608.424 154.402L603.728 165.479L600.897 164.279ZM610.713 161.25L611.457 168.756L608.332 167.431L607.659 159.956L610.713 161.25ZM617.728 171.414L612.981 169.402L618.658 156.01L623.445 158.039C624.792 158.61 625.838 159.37 626.583 160.318C627.329 161.262 627.752 162.344 627.852 163.564C627.957 164.786 627.714 166.092 627.124 167.483C626.533 168.878 625.761 169.965 624.809 170.744C623.86 171.525 622.782 171.975 621.574 172.096C620.37 172.218 619.088 171.991 617.728 171.414ZM616.841 168.176L618.639 168.938C619.476 169.293 620.243 169.443 620.94 169.389C621.643 169.332 622.271 169.051 622.825 168.545C623.385 168.037 623.876 167.284 624.3 166.285C624.719 165.296 624.916 164.425 624.89 163.674C624.868 162.924 624.635 162.28 624.19 161.741C623.744 161.203 623.103 160.756 622.266 160.401L620.461 159.636L616.841 168.176ZM626.378 175.081L632.055 161.689L641.079 165.515L640.089 167.849L633.897 165.224L632.544 168.415L638.272 170.843L637.282 173.178L631.554 170.749L630.199 173.947L636.417 176.583L635.428 178.918L626.378 175.081ZM637.652 179.861L643.33 166.469L648.613 168.709C649.625 169.138 650.411 169.684 650.973 170.349C651.54 171.012 651.872 171.752 651.968 172.569C652.07 173.383 651.933 174.233 651.558 175.118C651.181 176.007 650.665 176.691 650.01 177.169C649.356 177.643 648.594 177.896 647.721 177.927C646.854 177.96 645.905 177.759 644.877 177.323L641.339 175.823L642.304 173.548L645.383 174.853C645.924 175.082 646.404 175.199 646.825 175.202C647.245 175.205 647.605 175.096 647.905 174.873C648.21 174.653 648.455 174.322 648.642 173.882C648.83 173.437 648.9 173.024 648.851 172.643C648.806 172.264 648.635 171.92 648.34 171.609C648.051 171.297 647.634 171.025 647.089 170.794L645.18 169.984L640.484 181.061L637.652 179.861ZM647.468 176.832L648.213 184.338L645.087 183.013L644.414 175.538L647.468 176.832Z" fill="#2B66FF"/>
<path d="M393.573 150.913C393.109 152.008 392.506 152.852 391.765 153.444C391.028 154.038 390.217 154.386 389.332 154.489C388.452 154.591 387.569 154.454 386.683 154.078C385.79 153.7 385.075 153.157 384.538 152.451C384 151.745 383.688 150.92 383.602 149.977C383.516 149.034 383.704 148.017 384.167 146.925C384.631 145.83 385.232 144.985 385.97 144.391C386.708 143.798 387.517 143.45 388.397 143.349C389.278 143.244 390.165 143.381 391.057 143.76C391.943 144.135 392.655 144.676 393.193 145.382C393.735 146.087 394.049 146.91 394.136 147.853C394.225 148.798 394.038 149.817 393.573 150.913ZM391.42 150C391.721 149.29 391.869 148.647 391.863 148.07C391.86 147.494 391.721 146.999 391.445 146.585C391.169 146.171 390.774 145.855 390.261 145.638C389.748 145.42 389.247 145.356 388.757 145.446C388.268 145.535 387.814 145.779 387.395 146.176C386.979 146.574 386.621 147.128 386.32 147.838C386.019 148.547 385.87 149.19 385.873 149.766C385.879 150.343 386.02 150.838 386.296 151.252C386.571 151.666 386.966 151.982 387.479 152.2C387.993 152.417 388.494 152.481 388.983 152.392C389.472 152.302 389.925 152.058 390.341 151.66C390.76 151.263 391.12 150.709 391.42 150ZM393.017 156.601L397.275 146.558L401.238 148.237C402 148.56 402.587 148.981 403 149.499C403.414 150.014 403.653 150.588 403.717 151.221C403.785 151.851 403.678 152.5 403.395 153.167C403.112 153.834 402.719 154.362 402.215 154.75C401.711 155.138 401.126 155.358 400.459 155.411C399.796 155.466 399.078 155.329 398.307 155.002L395.781 153.931L396.502 152.23L398.685 153.155C399.093 153.328 399.46 153.4 399.784 153.372C400.113 153.342 400.397 153.229 400.634 153.032C400.876 152.834 401.067 152.57 401.207 152.24C401.349 151.906 401.405 151.587 401.376 151.282C401.352 150.974 401.235 150.695 401.026 150.444C400.817 150.19 400.507 149.976 400.095 149.801L398.663 149.194L395.141 157.502L393.017 156.601ZM401.959 160.392L406.217 150.348L412.985 153.217L412.243 154.968L407.598 152.999L406.584 155.393L410.88 157.214L410.137 158.965L405.841 157.143L404.825 159.542L409.489 161.519L408.746 163.27L401.959 160.392ZM410.415 163.977L414.673 153.933L418.636 155.613C419.394 155.935 419.984 156.345 420.405 156.843C420.831 157.34 421.08 157.895 421.152 158.508C421.228 159.119 421.126 159.756 420.844 160.42C420.562 161.087 420.175 161.6 419.683 161.958C419.193 162.314 418.621 162.503 417.967 162.527C417.316 162.552 416.605 162.401 415.833 162.074L413.18 160.949L413.903 159.242L416.213 160.221C416.619 160.393 416.979 160.48 417.294 160.483C417.61 160.485 417.88 160.403 418.105 160.236C418.333 160.071 418.517 159.823 418.657 159.493C418.798 159.159 418.851 158.85 418.814 158.564C418.78 158.28 418.652 158.021 418.431 157.788C418.214 157.554 417.901 157.35 417.493 157.177L416.061 156.569L412.539 164.877L410.415 163.977ZM417.777 161.706L418.335 167.335L415.991 166.341L415.487 160.735L417.777 161.706ZM421.209 168.553L418.934 167.588L426.659 159.014L429.395 160.175L428.6 171.686L426.324 170.721L427.093 161.906L427.015 161.873L421.209 168.553ZM422.741 164.545L428.116 166.823L427.413 168.481L422.038 166.202L422.741 164.545ZM431.715 163.223L432.457 161.472L440.706 164.969L439.964 166.72L436.889 165.417L433.373 173.71L431.274 172.82L434.79 164.527L431.715 163.223ZM444.188 166.446L439.93 176.489L437.806 175.589L442.064 165.545L444.188 166.446ZM453.036 176.121C452.571 177.216 451.969 178.06 451.228 178.652C450.49 179.246 449.679 179.594 448.794 179.698C447.914 179.799 447.031 179.662 446.145 179.286C445.253 178.908 444.538 178.366 444 177.659C443.462 176.953 443.15 176.129 443.064 175.186C442.978 174.243 443.166 173.225 443.629 172.133C444.094 171.038 444.695 170.194 445.432 169.6C446.17 169.006 446.979 168.659 447.859 168.557C448.74 168.453 449.627 168.59 450.52 168.968C451.406 169.344 452.117 169.884 452.655 170.591C453.197 171.295 453.512 172.119 453.598 173.062C453.687 174.006 453.5 175.026 453.036 176.121ZM450.883 175.208C451.183 174.499 451.331 173.855 451.325 173.278C451.322 172.702 451.183 172.207 450.907 171.794C450.631 171.38 450.237 171.064 449.723 170.846C449.21 170.629 448.709 170.565 448.22 170.654C447.73 170.744 447.276 170.987 446.857 171.384C446.441 171.783 446.083 172.337 445.782 173.046C445.481 173.755 445.332 174.398 445.335 174.974C445.341 175.551 445.482 176.047 445.758 176.461C446.034 176.875 446.428 177.19 446.942 177.408C447.455 177.626 447.956 177.69 448.445 177.6C448.935 177.511 449.387 177.267 449.803 176.868C450.222 176.471 450.582 175.918 450.883 175.208ZM465.138 175.327L460.881 185.371L459.046 184.594L457.357 176.42L457.283 176.388L454.603 182.71L452.48 181.81L456.738 171.766L458.601 172.556L460.259 180.711L460.347 180.748L463.025 174.431L465.138 175.327ZM471.117 181.27C471.245 180.857 471.207 180.479 471.003 180.134C470.798 179.788 470.441 179.508 469.931 179.291C469.584 179.144 469.271 179.069 468.99 179.066C468.712 179.06 468.472 179.115 468.273 179.231C468.076 179.348 467.933 179.515 467.841 179.73C467.758 179.907 467.729 180.08 467.754 180.249C467.782 180.419 467.849 180.584 467.955 180.745C468.062 180.902 468.196 181.058 468.359 181.211C468.523 181.362 468.704 181.508 468.902 181.65L469.713 182.248C470.109 182.532 470.456 182.833 470.753 183.152C471.05 183.471 471.282 183.806 471.449 184.158C471.616 184.511 471.704 184.88 471.714 185.266C471.727 185.653 471.647 186.057 471.472 186.477C471.209 187.09 470.826 187.557 470.324 187.876C469.827 188.194 469.234 188.353 468.547 188.355C467.864 188.355 467.114 188.182 466.297 187.835C465.486 187.492 464.833 187.068 464.336 186.564C463.843 186.062 463.532 185.496 463.402 184.866C463.276 184.235 463.358 183.554 463.648 182.824L465.703 183.696C465.583 184.042 465.56 184.364 465.635 184.662C465.714 184.958 465.873 185.224 466.112 185.46C466.356 185.695 466.661 185.889 467.027 186.045C467.387 186.197 467.721 186.277 468.03 186.285C468.343 186.294 468.612 186.236 468.838 186.112C469.064 185.988 469.229 185.805 469.331 185.563C469.427 185.338 469.44 185.12 469.371 184.909C469.306 184.7 469.168 184.488 468.959 184.272C468.753 184.057 468.486 183.828 468.157 183.585L467.18 182.846C466.42 182.281 465.888 181.676 465.583 181.03C465.279 180.384 465.285 179.69 465.603 178.95C465.858 178.34 466.245 177.877 466.764 177.562C467.287 177.247 467.891 177.084 468.574 177.073C469.258 177.062 469.966 177.212 470.698 177.522C471.443 177.838 472.04 178.242 472.488 178.732C472.939 179.224 473.223 179.763 473.341 180.35C473.459 180.936 473.396 181.53 473.152 182.132L471.117 181.27ZM473.361 189.285C473.038 189.148 472.808 188.916 472.673 188.589C472.541 188.263 472.545 187.936 472.683 187.609C472.819 187.289 473.05 187.063 473.376 186.931C473.705 186.801 474.031 186.804 474.355 186.941C474.669 187.074 474.895 187.305 475.033 187.634C475.172 187.962 475.173 188.287 475.037 188.607C474.946 188.823 474.806 188.997 474.619 189.13C474.436 189.261 474.234 189.343 474.011 189.376C473.79 189.406 473.574 189.375 473.361 189.285ZM475.451 184.357C475.127 184.219 474.898 183.987 474.762 183.66C474.631 183.334 474.634 183.008 474.773 182.681C474.908 182.36 475.139 182.136 475.463 182.007C475.792 181.877 476.119 181.88 476.442 182.017C476.756 182.15 476.982 182.381 477.121 182.71C477.261 183.035 477.262 183.358 477.127 183.679C477.034 183.898 476.894 184.073 476.706 184.206C476.524 184.337 476.322 184.417 476.101 184.447C475.88 184.477 475.663 184.447 475.451 184.357Z" fill="#2B66FF"/>
<path d="M547.43 171.027L550.837 162.992L554.007 164.336C554.616 164.594 555.086 164.931 555.416 165.345C555.748 165.757 555.939 166.216 555.99 166.722C556.044 167.227 555.958 167.746 555.732 168.28C555.506 168.813 555.191 169.235 554.788 169.546C554.385 169.856 553.917 170.032 553.384 170.075C552.853 170.118 552.279 170.009 551.662 169.747L549.641 168.891L550.218 167.529L551.964 168.27C552.291 168.408 552.584 168.466 552.844 168.444C553.107 168.419 553.334 168.329 553.524 168.172C553.718 168.013 553.87 167.802 553.982 167.538C554.096 167.271 554.141 167.015 554.118 166.771C554.098 166.525 554.005 166.302 553.837 166.101C553.67 165.898 553.422 165.726 553.092 165.587L551.947 165.101L549.129 171.747L547.43 171.027ZM554.584 174.06L557.99 166.024L563.404 168.32L562.81 169.72L559.095 168.145L558.283 170.06L561.72 171.517L561.126 172.918L557.69 171.461L556.876 173.379L560.607 174.961L560.014 176.361L554.584 174.06ZM561.349 176.927L564.755 168.892L567.925 170.236C568.532 170.494 569.004 170.822 569.341 171.221C569.681 171.618 569.88 172.062 569.938 172.552C569.999 173.041 569.917 173.551 569.692 174.082C569.466 174.615 569.156 175.026 568.763 175.313C568.371 175.597 567.913 175.748 567.39 175.767C566.869 175.787 566.3 175.666 565.683 175.405L563.56 174.505L564.139 173.14L565.987 173.923C566.311 174.06 566.6 174.13 566.852 174.132C567.104 174.134 567.32 174.068 567.5 173.935C567.683 173.803 567.83 173.604 567.942 173.34C568.055 173.073 568.097 172.826 568.067 172.597C568.04 172.37 567.938 172.163 567.761 171.977C567.588 171.789 567.337 171.626 567.011 171.487L565.865 171.001L563.047 177.648L561.349 176.927ZM567.238 175.11L567.685 179.614L565.809 178.819L565.406 174.334L567.238 175.11ZM572.005 171.966L574.1 172.854L574.024 179.191L574.119 179.231L578.62 174.77L580.715 175.659L577.309 183.694L575.661 182.995L577.878 177.765L577.811 177.737L573.531 182.046L572.409 181.57L572.539 175.479L572.472 175.45L570.247 180.7L568.599 180.001L572.005 171.966ZM583.814 176.972L580.407 185.007L578.708 184.287L582.115 176.252L583.814 176.972ZM584.311 178.836L584.905 177.435L591.504 180.233L590.911 181.633L588.451 180.59L585.638 187.225L583.959 186.513L586.771 179.878L584.311 178.836ZM591.691 181.964L592.285 180.564L598.884 183.361L598.29 184.762L595.83 183.719L593.018 190.353L591.339 189.641L594.151 183.007L591.691 181.964ZM596.565 191.857L599.971 183.822L605.385 186.117L604.791 187.518L601.076 185.943L600.264 187.857L603.701 189.314L603.107 190.715L599.671 189.258L598.857 191.176L602.588 192.758L601.995 194.159L596.565 191.857ZM606.178 195.932L603.329 194.725L606.736 186.69L609.608 187.907C610.416 188.25 611.043 188.706 611.49 189.275C611.938 189.841 612.192 190.49 612.252 191.222C612.315 191.955 612.169 192.739 611.816 193.574C611.461 194.411 610.998 195.063 610.426 195.53C609.857 195.999 609.21 196.269 608.485 196.341C607.763 196.415 606.994 196.278 606.178 195.932ZM605.645 193.989L606.724 194.447C607.226 194.66 607.687 194.75 608.105 194.717C608.526 194.683 608.903 194.514 609.236 194.211C609.572 193.906 609.867 193.454 610.121 192.855C610.372 192.261 610.49 191.739 610.475 191.288C610.462 190.838 610.322 190.452 610.055 190.129C609.787 189.805 609.403 189.537 608.9 189.325L607.818 188.866L605.645 193.989Z" fill="#2B66FF"/>
</g>
<path d="M484.622 150.236L402 115.365L423.71 63.9268L506.332 98.7986L484.622 150.236ZM404.734 114.254L483.511 147.503L503.598 99.9096L424.821 66.6605L404.734 114.254Z" fill="#E5E5E5"/>
<path d="M504.965 99.3539L424.266 65.2935L403.367 114.809L484.067 148.869L504.965 99.3539Z" fill="white"/>
<path d="M499.669 111.903L500.952 108.863L489.757 104.138L493.77 94.6289L490.73 93.3458L486.717 102.855L466.786 94.443L470.8 84.9339L467.76 83.6507L463.746 93.1599L433.006 80.1856L437.019 70.6764L433.979 69.3932L429.966 78.9024L420.252 74.8026L418.969 77.8429L428.683 81.9426L423.692 93.7658L413.979 89.666L412.696 92.7063L422.409 96.806L417.063 109.474L407.349 105.374L406.066 108.414L432.163 119.429L429.464 125.823L432.504 127.107L435.203 120.712L449.56 126.771L446.861 133.166L449.901 134.449L452.6 128.055L486.766 142.475L488.049 139.434L453.883 125.014L459.23 112.347L493.395 126.767L494.679 123.726L483.484 119.001L488.474 107.178L499.669 111.903ZM462.463 96.2001L460.895 99.9159L430.154 86.9416L431.723 83.2258L462.463 96.2001ZM428.871 89.9819L459.611 102.956L457.473 108.023L426.733 95.0489L428.871 89.9819ZM420.103 110.757L425.449 98.0892L438.793 103.721L433.446 116.389L420.103 110.757ZM450.843 123.731L436.486 117.672L441.833 105.004L456.19 111.063L450.843 123.731ZM480.443 117.718L460.513 109.306L465.503 97.4833L485.434 105.895L480.443 117.718Z" fill="#E6E6E6"/>
<path d="M487.032 83.1728C483.633 91.2241 461.485 103.007 461.485 103.007C461.485 103.007 454.477 78.9183 457.875 70.8671C459.507 67.0008 462.608 63.941 466.496 62.361C470.384 60.781 474.74 60.8101 478.606 62.4419C482.473 64.0738 485.532 67.1747 487.112 71.0625C488.692 74.9503 488.663 79.3065 487.032 83.1728Z" fill="#2B66FF"/>
<path d="M479.385 79.1989C478.829 80.517 477.894 81.6405 476.7 82.4273C475.505 83.2142 474.103 83.6291 472.673 83.6195C471.242 83.61 469.847 83.1764 468.662 82.3736C467.478 81.5709 466.559 80.435 466.02 79.1096C465.481 77.7842 465.348 76.3289 465.636 74.9276C465.925 73.5263 466.622 72.2421 467.641 71.2372C468.659 70.2324 469.952 69.5521 471.357 69.2824C472.762 69.0127 474.216 69.1656 475.534 69.7219C476.409 70.0909 477.203 70.6289 477.871 71.305C478.538 71.9811 479.066 72.7821 479.424 73.6622C479.781 74.5424 479.962 75.4844 479.956 76.4344C479.949 77.3844 479.755 78.3238 479.385 79.1989Z" fill="white"/>
<path d="M457.045 113.528C459.215 114.444 461.717 113.428 462.633 111.257C463.549 109.087 462.532 106.585 460.362 105.669C458.192 104.753 455.69 105.77 454.774 107.94C453.858 110.11 454.874 112.612 457.045 113.528Z" fill="#2B66FF"/>
<rect x="414.245" y="90" width="86.4844" height="3.22796" transform="rotate(22.6908 414.245 90)" fill="#2B66FF"/>
<path d="M605.072 272.072C607.873 273.689 611.455 272.729 613.072 269.928C614.689 267.127 613.729 263.545 610.928 261.928C608.127 260.311 604.545 261.271 602.928 264.072C601.311 266.873 602.271 270.455 605.072 272.072Z" fill="#2B66FF"/>
<path d="M606.38 268.645C606.266 268.579 606.176 268.478 606.125 268.357L606.121 268.349L605.456 266.748C605.425 266.674 605.409 266.595 605.409 266.514C605.409 266.434 605.424 266.354 605.455 266.28C605.486 266.205 605.531 266.138 605.588 266.081C605.644 266.024 605.712 265.979 605.786 265.948C605.86 265.917 605.94 265.901 606.02 265.901C606.101 265.901 606.18 265.917 606.255 265.948C606.329 265.979 606.397 266.024 606.453 266.081C606.51 266.138 606.555 266.205 606.586 266.28L607.016 267.317L610.214 265.991C610.288 265.961 610.368 265.945 610.448 265.945C610.528 265.945 610.608 265.961 610.682 265.991C610.756 266.022 610.824 266.067 610.881 266.124C610.937 266.18 610.982 266.248 611.013 266.322C611.075 266.472 611.075 266.641 611.013 266.79C610.951 266.94 610.832 267.059 610.683 267.121L606.921 268.681C606.834 268.717 606.74 268.732 606.646 268.726C606.553 268.72 606.462 268.692 606.38 268.645Z" fill="white"/>
<path d="M522.144 169.144C527.746 172.378 534.909 170.459 538.144 164.856C541.378 159.254 539.459 152.091 533.856 148.856C528.254 145.622 521.091 147.541 517.856 153.144C514.622 158.746 516.542 165.909 522.144 169.144Z" fill="#7BD740"/>
<path d="M524.76 162.289C524.532 162.158 524.352 161.956 524.249 161.713L524.242 161.698L522.912 158.497C522.85 158.348 522.818 158.189 522.818 158.028C522.817 157.868 522.848 157.708 522.91 157.56C522.971 157.411 523.061 157.276 523.175 157.162C523.288 157.048 523.423 156.957 523.572 156.896C523.72 156.834 523.879 156.802 524.04 156.802C524.201 156.802 524.36 156.834 524.509 156.896C524.658 156.957 524.793 157.048 524.906 157.162C525.02 157.275 525.11 157.411 525.171 157.559L526.032 159.635L532.428 156.983C532.576 156.921 532.735 156.89 532.896 156.889C533.056 156.889 533.215 156.921 533.364 156.982C533.512 157.044 533.647 157.134 533.761 157.247C533.874 157.361 533.964 157.496 534.026 157.644C534.15 157.944 534.15 158.281 534.026 158.581C533.902 158.88 533.664 159.118 533.365 159.243L525.841 162.362C525.668 162.434 525.48 162.465 525.292 162.452C525.105 162.439 524.923 162.384 524.76 162.289Z" fill="white"/>
</g>
<defs>
<clipPath id="clip0_1010_6433">
<rect width="952" height="586" fill="white"/>
</clipPath>
<clipPath id="clip1_1010_6433">
<rect width="952" height="586" fill="white"/>
</clipPath>
</defs>
</svg>
